<svg width="150" height="150" viewBox="0 0 150 150" fill="none" xmlns="http://www.w3.org/2000/svg" style="width: 600px; height: 600px;"><style>
     .business1-1 {animation:business1-1 4s infinite; transform: translate3d(0, -2px, 0);}
     .business1-2 {animation:business1-1 4s 300ms infinite; transform: translate3d(0, -2px, 0);}
     .business1-3 {animation:business1-1 4s 600ms infinite; transform: translate3d(0, -2px, 0);}
     @keyframes business1-1 {
         0%{transform: translate3d(0, -2px, 0);}
         50%{transform: translate3d(0, 6px, 0);}
         100%{transform: translate3d(0, -2px, 0);}
     }
     @media (prefers-reduced-motion: reduce) {
         .business1-1 {
             animation: none;
         }
     }
    </style><path class="fillCls1" d="M82.2194 33.4419C82.712 33.2427 82.8869 32.5253 82.6098 31.8394C82.3327 31.1535 81.7085 30.759 81.2159 30.9582C80.7227 31.1574 80.5478 31.8748 80.8249 32.5607C81.102 33.2466 81.7262 33.6411 82.2194 33.4419Z" fill="#000000" stroke-width="2px" style="animation-duration: 5s;"></path><path class="fillCls1" d="M75.7135 36.076C76.2061 35.8768 76.3811 35.1594 76.1039 34.4735C75.8268 33.7876 75.2026 33.3931 74.71 33.5922C74.2169 33.7914 74.0419 34.5089 74.3191 35.1947C74.5962 35.8806 75.2204 36.2752 75.7135 36.076Z" fill="#000000" stroke-width="2px" style="animation-duration: 5s;"></path><path class="fillCls1" d="M79.1141 29.1634C79.2523 29.1615 79.384 29.1051 79.4806 29.0065C79.7205 28.7659 79.9915 28.5582 80.2864 28.3891C81.0356 27.9461 81.8958 27.7248 82.766 27.7508C82.8343 27.7536 82.9026 27.7428 82.9665 27.7189C83.0304 27.6951 83.0887 27.6586 83.1387 27.6119C83.1881 27.5651 83.2281 27.5088 83.2558 27.4464C83.2836 27.3841 83.2986 27.3168 83.2997 27.2485C83.3025 27.1789 83.2914 27.1095 83.2669 27.0443C83.2425 26.979 83.2053 26.9193 83.1575 26.8687C83.1098 26.818 83.0526 26.7773 82.9887 26.7491C82.9254 26.7209 82.8565 26.7057 82.7871 26.7044C81.722 26.6752 80.6701 26.9472 79.7527 27.4892C79.3867 27.7049 79.0496 27.965 78.7481 28.2636C78.6726 28.3361 78.6209 28.4296 78.5992 28.5318C78.5776 28.6342 78.587 28.7406 78.6265 28.8375C78.6659 28.9343 78.7331 29.0172 78.8203 29.0753C78.9075 29.1333 79.0097 29.1641 79.1141 29.1634Z" fill="#000000" stroke-width="2px" style="animation-duration: 5s;"></path><path class="fillCls1" d="M82.2853 40.3597C82.2419 40.3067 82.1886 40.2629 82.1281 40.2309C82.067 40.199 82.0009 40.1795 81.9326 40.1736C81.8643 40.1678 81.7954 40.1756 81.7305 40.1969C81.6649 40.218 81.605 40.2521 81.5528 40.2969C81.1029 40.6632 80.6425 40.7051 80.4859 40.6004C80.4554 40.5704 80.431 40.5346 80.4149 40.495C80.3988 40.4554 80.391 40.4129 80.3915 40.3702C80.3899 40.3379 80.3826 40.3061 80.3704 40.276L78.8427 34.8452C78.8055 34.7105 78.716 34.5964 78.5944 34.5277C78.4728 34.459 78.3284 34.4414 78.194 34.4789C78.0596 34.5164 77.9452 34.6057 77.8764 34.7274C77.8081 34.8491 77.7903 34.9931 77.8281 35.1277L79.3558 40.5167C79.373 40.6998 79.4286 40.8773 79.5185 41.0377C79.6085 41.1981 79.7312 41.3379 79.8789 41.448C80.1211 41.6166 80.4104 41.7045 80.7053 41.6991C81.1973 41.6991 81.7416 41.4899 82.2225 41.1027C82.328 41.0116 82.3936 40.8828 82.4052 40.744C82.4169 40.6052 82.3741 40.4673 82.2853 40.3597Z" fill="#000000" stroke-width="2px" style="animation-duration: 5s;"></path><path class="fillCls1" d="M85.6456 41.9507C85.584 41.9203 85.5168 41.9025 85.4479 41.8981C85.379 41.8938 85.3102 41.9031 85.2452 41.9255C85.1797 41.9478 85.1197 41.9828 85.068 42.0284C85.0164 42.0741 84.9747 42.1294 84.9442 42.1914C84.6693 42.7863 84.22 43.2833 83.6552 43.6161C83.0904 43.9489 82.4379 44.1016 81.7843 44.054C81.716 44.0483 81.6477 44.0563 81.5821 44.0775C81.5172 44.0988 81.4572 44.1328 81.4055 44.1777C81.3539 44.2225 81.3117 44.2773 81.2817 44.3387C81.2511 44.4001 81.2334 44.467 81.2295 44.5353C81.2212 44.6724 81.2667 44.8075 81.3567 44.9113C81.4466 45.015 81.5738 45.0792 81.711 45.0899H82.0247C82.6228 45.0897 83.2148 44.9649 83.7619 44.7237C84.6926 44.2957 85.4446 43.5552 85.8861 42.6309C85.9438 42.5086 85.951 42.3686 85.9055 42.2413C85.8605 42.1139 85.7672 42.0095 85.6456 41.9507Z" fill="#000000" stroke-width="2px" style="animation-duration: 5s;"></path><path class="fillCls4" d="M80.0973 90.2529L79.2815 89.8553L79.156 89.8137C78.9144 89.732 78.6518 89.7409 78.4169 89.8392C78.1814 89.9375 77.9903 90.118 77.8793 90.3473L76.0372 94.1459C75.9228 94.3836 75.9022 94.6557 75.98 94.9078C76.0577 95.1605 76.2277 95.3738 76.4559 95.506L76.5187 95.5376L77.3978 95.9663L79.0405 96.7616L79.9824 97.2225L80.3173 97.3791C80.4411 97.4402 80.5755 97.4758 80.7127 97.4841C80.8504 97.493 80.9881 97.4747 81.1181 97.4297C81.2486 97.3852 81.3685 97.3147 81.4718 97.2236C81.5751 97.1326 81.659 97.0215 81.7195 96.8977L83.561 93.0996C83.6804 92.8508 83.6971 92.5654 83.6066 92.3044C83.5166 92.0439 83.3272 91.8296 83.0795 91.7079L82.6192 91.4775L81.6778 91.0276L80.0973 90.2529ZM78.9572 95.4643C78.9133 95.5459 78.8489 95.6142 78.7695 95.6626C78.6901 95.7103 78.5996 95.7359 78.5068 95.7364C78.4146 95.7381 78.3236 95.7125 78.2452 95.6631C78.1853 95.6298 78.1331 95.5843 78.0909 95.5298C78.0492 95.476 78.0181 95.4138 78.0009 95.3471C77.9831 95.281 77.9792 95.2116 77.9887 95.1439C77.9987 95.0756 78.0215 95.0106 78.057 94.9517L79.156 93.0158H79.166L79.1977 92.9636L79.2288 92.9319C79.2377 92.9136 79.2521 92.8986 79.271 92.8903L79.3021 92.8586L79.3443 92.8381L79.3965 92.8064H79.4381L79.4909 92.7853H79.5009L80.987 92.4715C81.0542 92.4577 81.1236 92.4577 81.1914 92.4704C81.2586 92.4838 81.323 92.5099 81.3802 92.5476C81.4374 92.5854 81.4868 92.6343 81.5251 92.6915C81.564 92.7481 81.5907 92.8125 81.6045 92.8797C81.6179 92.9469 81.6184 93.0163 81.6057 93.0841C81.5923 93.1513 81.5662 93.2157 81.5285 93.2729C81.4901 93.3301 81.4413 93.3795 81.3846 93.4179C81.3274 93.4562 81.2636 93.4834 81.1964 93.4973L79.9513 93.7588L78.9572 95.4643Z" fill="#35FFC9" stroke-width="2px" style="animation-duration: 5s;"></path><path class="fillCls3" d="M95.3126 47.3923L95.4381 47.4129C96.1612 47.5511 96.8743 47.7366 97.5729 47.9677C98.3959 48.2542 99.2001 48.5935 99.9798 48.9828L102.208 35.1072C102.246 34.8791 102.238 34.6458 102.185 34.4208C102.132 34.1957 102.035 33.9834 101.9 33.7958C101.765 33.6082 101.594 33.4491 101.398 33.3276C101.201 33.206 100.982 33.1245 100.754 33.0876L92.4665 31.7587C92.3732 31.7414 92.2788 31.7344 92.1838 31.7378C91.8173 31.7395 91.4596 31.8527 91.1586 32.0622C90.7838 32.3398 90.5322 32.7528 90.4572 33.2132L87.9882 48.543C87.9504 48.7707 87.9587 49.0034 88.0115 49.2277C88.0648 49.4521 88.1614 49.6637 88.2969 49.8503C88.4319 50.0374 88.6029 50.1952 88.7995 50.3157C88.9961 50.4362 89.2144 50.5167 89.4426 50.5522L91.3991 50.866L91.5563 50.7094L91.7129 50.5733C91.3469 50.1863 90.8654 49.5898 90.8343 48.9828C90.8027 48.3758 91.1792 47.7899 91.7967 47.4862C92.9269 46.9212 94.2453 47.183 95.3126 47.3923ZM93.3978 33.59C93.7876 33.5879 94.1697 33.7017 94.4946 33.9171C94.82 34.1325 95.0738 34.4396 95.2238 34.7995C95.3737 35.1594 95.4137 35.5558 95.3382 35.9384C95.2626 36.321 95.0749 36.6725 94.7995 36.9482C94.5235 37.224 94.1719 37.4116 93.7893 37.4871C93.4067 37.5627 93.0107 37.5229 92.6508 37.3726C92.291 37.2225 91.9833 36.9687 91.7684 36.6436C91.5529 36.3185 91.4391 35.9367 91.4413 35.5467C91.4413 35.0277 91.6473 34.53 92.0144 34.1631C92.381 33.7961 92.8791 33.59 93.3978 33.59Z" fill="#FFEF00" stroke-width="2px" style="animation-duration: 5s;"></path><g class="business1-2" style="animation-duration: 5s;"><path class="fillCls4" d="M133.561 57.09C138.039 57.09 141.669 53.4599 141.669 48.982C141.669 44.504 138.039 40.8739 133.561 40.8739C129.083 40.8739 125.453 44.504 125.453 48.982C125.453 53.4599 129.083 57.09 133.561 57.09Z" fill="#35FFC9" stroke-width="2px" style="animation-duration: 5s;"></path><path class="fillCls1" d="M124.005 47.1097C123.966 48.2259 124.151 49.3394 124.552 50.3823C124.952 51.4258 125.557 52.3777 126.333 53.1818C127.109 53.9854 128.039 54.6252 129.068 55.0617C130.096 55.4987 131.202 55.7237 132.319 55.7237C133.437 55.7237 134.542 55.4987 135.571 55.0617C136.599 54.6252 137.529 53.9854 138.305 53.1818C139.081 52.3777 139.687 51.4258 140.087 50.3823C140.487 49.3394 140.672 48.2259 140.633 47.1097C140.634 45.8501 140.344 44.6073 139.785 43.4785C138.963 41.7888 137.593 40.4275 135.897 39.6171C134.202 38.8066 132.282 38.5948 130.451 39.0162C128.62 39.4376 126.985 40.4673 125.815 41.9372C124.644 43.4071 124.006 45.2305 124.005 47.1097ZM132.314 39.8475C133.75 39.8475 135.154 40.2734 136.348 41.0714C137.543 41.8694 138.474 43.0036 139.023 44.3305C139.573 45.6575 139.717 47.1175 139.437 48.5264C139.156 49.9353 138.465 51.2292 137.449 52.2444C136.433 53.2601 135.139 53.9521 133.73 54.232C132.322 54.5124 130.862 54.3686 129.535 53.8188C128.208 53.269 127.073 52.3383 126.275 51.1443C125.478 49.9497 125.052 48.5458 125.052 47.1097C125.052 45.1836 125.817 43.3364 127.179 41.9746C128.541 40.6126 130.388 39.8475 132.314 39.8475Z" fill="#000000" stroke-width="2px" style="animation-duration: 5s;"></path><path class="fillCls1" d="M134.9 42.1916C134.839 42.157 134.773 42.135 134.704 42.1268C134.635 42.1186 134.566 42.1245 134.499 42.144C134.433 42.1636 134.371 42.1964 134.317 42.2406C134.264 42.2847 134.22 42.3393 134.188 42.4009L129.27 51.3582C129.206 51.4809 129.191 51.6237 129.231 51.7564C129.27 51.8891 129.359 52.0013 129.479 52.0696C129.557 52.1102 129.643 52.1318 129.73 52.1324C129.824 52.1318 129.916 52.1063 129.997 52.0585C130.078 52.0107 130.145 51.9424 130.19 51.8602L135.099 42.9032C135.134 42.8437 135.156 42.7778 135.165 42.7094C135.174 42.6411 135.169 42.5715 135.15 42.5051C135.132 42.4387 135.1 42.3767 135.057 42.3228C135.014 42.2689 134.96 42.2243 134.9 42.1916Z" fill="#000000" stroke-width="2px" style="animation-duration: 5s;"></path><path class="fillCls1" d="M130.986 45.8432C131.354 45.8432 131.714 45.7339 132.021 45.5293C132.327 45.3246 132.566 45.0337 132.707 44.6934C132.848 44.353 132.884 43.9785 132.813 43.6172C132.741 43.2559 132.563 42.924 132.303 42.6635C132.043 42.403 131.71 42.2257 131.349 42.1538C130.988 42.0819 130.614 42.1188 130.273 42.2598C129.933 42.4008 129.642 42.6394 129.437 42.9458C129.232 43.2521 129.123 43.6122 129.123 43.9806C129.125 44.132 129.142 44.2829 129.176 44.4305C129.278 44.8335 129.511 45.191 129.839 45.4468C130.167 45.7026 130.57 45.842 130.986 45.8432ZM131.791 43.9806C131.793 44.0873 131.773 44.1932 131.733 44.2922C131.693 44.3911 131.634 44.4812 131.559 44.5571C131.484 44.633 131.395 44.6933 131.297 44.7345C131.198 44.7756 131.092 44.7968 130.986 44.7968C130.77 44.7968 130.562 44.7108 130.409 44.5577C130.256 44.4047 130.17 44.1971 130.17 43.9806C130.17 43.8739 130.191 43.7682 130.232 43.6698C130.273 43.5714 130.334 43.4821 130.409 43.4071C130.485 43.3321 130.575 43.273 130.674 43.2332C130.774 43.1933 130.879 43.1735 130.986 43.1749C131.092 43.1735 131.197 43.1933 131.296 43.2333C131.394 43.2733 131.484 43.3326 131.559 43.4077C131.634 43.4828 131.693 43.5722 131.733 43.6706C131.773 43.769 131.793 43.8744 131.791 43.9806Z" fill="#000000" stroke-width="2px" style="animation-duration: 5s;"></path><path class="fillCls1" d="M133.653 48.0717C133.285 48.0717 132.925 48.1811 132.619 48.386C132.312 48.5904 132.074 48.8814 131.933 49.2218C131.792 49.5623 131.755 49.9366 131.827 50.2981C131.899 50.6591 132.076 50.9912 132.337 51.2516C132.597 51.5121 132.929 51.6892 133.29 51.7614C133.652 51.8331 134.026 51.7964 134.367 51.6554C134.707 51.5143 134.997 51.2755 135.202 50.9695C135.407 50.663 135.516 50.3031 135.516 49.9344C135.516 49.4406 135.32 48.9669 134.971 48.6176C134.621 48.2683 134.148 48.0717 133.653 48.0717ZM133.653 50.7402C133.492 50.7402 133.334 50.6918 133.199 50.6019C133.065 50.5119 132.96 50.3836 132.899 50.2337C132.837 50.0843 132.822 49.9194 132.854 49.7611C132.887 49.6023 132.965 49.4568 133.08 49.3435C133.195 49.2296 133.342 49.1524 133.501 49.1224C133.66 49.0919 133.825 49.1097 133.973 49.173C134.122 49.2363 134.249 49.3429 134.337 49.4784C134.426 49.6139 134.472 49.7727 134.47 49.9344C134.467 50.1493 134.38 50.3542 134.227 50.5047C134.074 50.6557 133.868 50.7402 133.653 50.7402Z" fill="#000000" stroke-width="2px" style="animation-duration: 5s;"></path></g><g class="business1-3" style="animation-duration: 5s;"><path class="fillCls3" d="M122.065 21.4915C126.543 21.4915 130.173 17.8614 130.173 13.3835C130.173 8.90552 126.543 5.27542 122.065 5.27542C117.587 5.27542 113.957 8.90552 113.957 13.3835C113.957 17.8614 117.587 21.4915 122.065 21.4915Z" fill="#FFEF00" stroke-width="2px" style="animation-duration: 5s;"></path><path class="fillCls1" d="M116.555 19.1489C118.042 20.0185 119.76 20.4129 121.478 20.2792C123.196 20.1456 124.832 19.4902 126.167 18.4009C127.502 17.3117 128.472 15.8406 128.948 14.1845C129.424 12.5285 129.382 10.7665 128.829 9.13476C128.391 7.84186 127.646 6.6743 126.658 5.73193C125.67 4.78962 124.469 4.10049 123.157 3.72347C121.845 3.34644 120.461 3.29279 119.124 3.56708C117.786 3.84137 116.535 4.43542 115.477 5.29843C114.419 6.16144 113.586 7.2678 113.049 8.52294C112.512 9.77802 112.287 11.1445 112.393 12.5056C112.498 13.8667 112.933 15.1819 113.657 16.3388C114.382 17.4957 115.376 18.4599 116.555 19.1489ZM120.835 4.4573C122.297 4.45935 123.726 4.89475 124.941 5.70844C126.156 6.52219 127.103 7.6777 127.661 9.02913C128.22 10.3805 128.366 11.8672 128.08 13.3013C127.794 14.7354 127.089 16.0527 126.055 17.0867C125.021 18.1207 123.704 18.8251 122.27 19.1109C120.836 19.3967 119.35 19.2511 117.998 18.6924C116.647 18.1338 115.491 17.1871 114.677 15.9721C113.864 14.7571 113.428 13.3282 113.426 11.8659C113.426 9.90103 114.206 8.01663 115.596 6.62721C116.985 5.23784 118.87 4.4573 120.835 4.4573Z" fill="#000000" stroke-width="2px" style="animation-duration: 5s;"></path><path class="fillCls1" d="M118.553 7.97318C117.611 9.13468 118.051 11.0391 119.055 11.8972C119.725 12.4727 120.478 12.4518 121.075 12.4518C121.671 12.4518 122.048 12.4518 122.383 12.7553C122.718 13.0587 123.084 14.0946 122.718 14.733C122.351 15.3713 121.284 15.4968 120.866 15.4864C119.6 15.455 118.804 14.4505 118.647 14.2412C118.608 14.1853 118.558 14.1381 118.499 14.1024C118.441 14.0667 118.376 14.0433 118.308 14.0335C118.241 14.0237 118.172 14.0277 118.106 14.0455C118.04 14.0632 117.978 14.0942 117.925 14.1365C117.869 14.177 117.822 14.228 117.786 14.2868C117.75 14.3455 117.726 14.4108 117.715 14.4788C117.705 14.5469 117.707 14.6164 117.724 14.6834C117.74 14.7503 117.769 14.8134 117.81 14.869C118.051 15.1934 118.846 16.1352 120.133 16.4386V17.0769C120.133 17.2157 120.188 17.3488 120.287 17.4469C120.384 17.545 120.518 17.6002 120.656 17.6002C120.795 17.6002 120.928 17.545 121.026 17.4469C121.125 17.3488 121.18 17.2157 121.18 17.0769V16.5328C122.31 16.4805 123.189 16.0305 123.628 15.2457C124.203 14.2412 123.963 12.8076 123.094 11.9914C122.446 11.374 121.682 11.3949 121.065 11.4054C120.447 11.4158 120.08 11.4054 119.736 11.1019C119.118 10.5787 118.814 9.30212 119.369 8.63237C119.6 8.34987 119.997 8.16149 120.458 8.10918C121.147 8.06964 121.826 8.29839 122.351 8.7475C122.403 8.79215 122.464 8.82608 122.53 8.8474C122.595 8.86867 122.664 8.87684 122.732 8.87151C122.801 8.86617 122.868 8.8474 122.929 8.81625C122.99 8.78509 123.044 8.74217 123.089 8.68996C123.134 8.63776 123.168 8.57723 123.189 8.51192C123.21 8.44655 123.219 8.37769 123.213 8.30916C123.208 8.24069 123.189 8.17388 123.158 8.11262C123.127 8.05143 123.084 7.99689 123.032 7.95224C122.504 7.50302 121.863 7.20636 121.18 7.09418V6.51867C121.18 6.37989 121.125 6.24683 121.026 6.1487C120.928 6.05057 120.795 5.99542 120.656 5.99542C120.518 5.99542 120.384 6.05057 120.287 6.1487C120.188 6.24683 120.133 6.37989 120.133 6.51867V7.10462C119.516 7.18464 118.951 7.49486 118.553 7.97318Z" fill="#000000" stroke-width="2px" style="animation-duration: 5s;"></path></g><g class="business1-1" style="animation-duration: 5s;"><path class="fillCls3" d="M32.2096 65.2527C36.6876 65.2527 40.3177 61.6226 40.3177 57.1446C40.3177 52.6667 36.6876 49.0366 32.2096 49.0366C27.7317 49.0366 24.1016 52.6667 24.1016 57.1446C24.1016 61.6226 27.7317 65.2527 32.2096 65.2527Z" fill="#FFEF00" stroke-width="2px" style="animation-duration: 5s;"></path><path class="fillCls1" d="M39.3408 55.6481C39.3366 53.9815 38.8388 52.3532 37.9099 50.9693C36.9812 49.5853 35.6631 48.5074 34.1223 47.8721C32.5813 47.2368 30.8868 47.0718 29.2524 47.3989C27.618 47.726 26.1171 48.5296 24.9393 49.7092C23.7614 50.8882 22.9594 52.3904 22.6345 54.0248C22.3095 55.6597 22.4763 57.3541 23.1137 58.8941C23.751 60.4346 24.8304 61.7513 26.2156 62.6782C27.6007 63.6051 29.2295 64.101 30.8962 64.1032C32.0061 64.1032 33.105 63.8844 34.1303 63.4596C35.1555 63.0342 36.0868 62.4116 36.8712 61.6264C37.6554 60.8411 38.2772 59.9087 38.701 58.883C39.1248 57.8572 39.3422 56.7582 39.3408 55.6481ZM23.4876 55.6481C23.4833 53.912 24.0869 52.2299 25.1938 50.8926C26.3006 49.5554 27.8408 48.6474 29.547 48.3275C31.2532 48.007 33.0176 48.2947 34.5339 49.1399C36.0503 49.9846 37.2229 51.3341 37.8481 52.9535C38.4733 54.5729 38.5117 56.3606 37.9566 58.0049C37.4016 59.6499 36.2881 61.0482 34.8094 61.9579C33.3307 62.8676 31.5803 63.2302 29.862 62.9836C28.1436 62.7371 26.5659 61.8968 25.4026 60.6084C24.1726 59.2489 23.4903 57.4818 23.4876 55.6481Z" fill="#000000" stroke-width="2px" style="animation-duration: 5s;"></path><path class="fillCls1" d="M30.7187 49.7774C30.5799 49.7774 30.4468 49.8324 30.3487 49.9307C30.2506 50.0284 30.1955 50.1617 30.1955 50.3005V50.8864C29.5781 50.9664 29.0138 51.2768 28.6154 51.755C27.6736 52.9268 28.1131 54.8211 29.1177 55.6896C29.7874 56.2544 30.5408 56.2439 31.1372 56.2339C31.7337 56.2233 32.1209 56.2339 32.4452 56.5371C32.7696 56.8403 33.1463 57.8766 32.7801 58.5252C32.4139 59.1739 31.3465 59.2894 30.9279 59.2683C29.6618 59.2366 28.8665 58.232 28.7095 58.0332C28.6701 57.9782 28.62 57.931 28.5621 57.8949C28.5043 57.8594 28.4399 57.8355 28.3727 57.8244C28.3055 57.8138 28.2368 57.8166 28.1707 57.8327C28.1045 57.8488 28.0423 57.8777 27.9875 57.9182C27.9318 57.9588 27.8845 58.0099 27.8485 58.0687C27.8125 58.127 27.7885 58.1926 27.7778 58.2609C27.7671 58.3286 27.77 58.3981 27.7862 58.4652C27.8024 58.5319 27.8318 58.5952 27.8724 58.6507C28.1131 58.9751 28.9084 59.9275 30.1955 60.2307V60.8588C30.1955 60.9976 30.2506 61.1304 30.3487 61.2287C30.4468 61.3269 30.5799 61.3819 30.7187 61.3819C30.8574 61.3819 30.9905 61.3269 31.0886 61.2287C31.1868 61.1304 31.2419 60.9976 31.2419 60.8588V60.3145C32.372 60.2623 33.2614 59.8125 33.6905 59.0378C34.266 58.0232 34.0253 56.5893 33.1568 55.7729C32.5081 55.1665 31.7442 55.1765 31.1267 55.187C30.5094 55.1976 30.1432 55.187 29.7978 54.8838C29.1804 54.3607 28.877 53.0945 29.4316 52.4142C29.6618 52.1315 30.0594 51.9433 30.5199 51.9016C30.8621 51.8766 31.2059 51.9205 31.531 52.0299C31.8562 52.1399 32.1564 52.3131 32.4139 52.5397C32.5224 52.6258 32.6597 52.6674 32.7978 52.6558C32.9358 52.6441 33.0642 52.5802 33.1568 52.4769C33.2454 52.3692 33.2884 52.2315 33.2767 52.0926C33.2649 51.9538 33.1994 51.825 33.094 51.7339C32.568 51.2841 31.9263 50.9903 31.2419 50.8864V50.3005C31.2419 50.1617 31.1868 50.0284 31.0886 49.9307C30.9905 49.8324 30.8574 49.7774 30.7187 49.7774Z" fill="#000000" stroke-width="2px" style="animation-duration: 5s;"></path></g><path class="fillCls1" d="M93.3979 37.5136C93.7877 37.5157 94.1687 37.4021 94.4936 37.1872C94.8185 36.9723 95.0723 36.6658 95.2228 36.3065C95.3733 35.9472 95.4138 35.5514 95.3394 35.1691C95.2644 34.7868 95.0778 34.4353 94.8029 34.1591C94.5286 33.8829 94.1781 33.6945 93.7961 33.6177C93.414 33.541 93.018 33.5793 92.6582 33.7279C92.2977 33.8765 91.9901 34.1286 91.7735 34.4524C91.5569 34.7761 91.4414 35.1569 91.4414 35.5464C91.4414 36.0664 91.6469 36.5651 92.0134 36.9338C92.3805 37.3024 92.8781 37.5109 93.3979 37.5136ZM93.3979 34.636C93.5812 34.634 93.7605 34.6865 93.9132 34.7868C94.0665 34.8872 94.1859 35.0309 94.257 35.1996C94.3281 35.3683 94.347 35.5543 94.312 35.7339C94.277 35.9135 94.1887 36.0785 94.0593 36.2079C93.9299 36.3374 93.765 36.4253 93.5856 36.4605C93.4057 36.4956 93.2196 36.4765 93.0514 36.4056C92.8825 36.3345 92.7387 36.2149 92.6382 36.0619C92.5382 35.9089 92.4855 35.7294 92.4877 35.5464C92.4877 35.305 92.5837 35.0734 92.7542 34.9027C92.9247 34.7319 93.1563 34.636 93.3979 34.636Z" fill="#000000" stroke-width="2px" style="animation-duration: 5s;"></path><path class="fillCls4" d="M95.6796 93.0155C96.6792 93.0155 97.49 92.2047 97.49 91.2051C97.49 90.2055 96.6792 89.3947 95.6796 89.3947C94.6794 89.3947 93.8691 90.2055 93.8691 91.2051C93.8691 92.2047 94.6794 93.0155 95.6796 93.0155Z" fill="#35FFC9" stroke-width="2px" style="animation-duration: 5s;"></path><path class="fillCls1" d="M60.7915 36.1017C61.2736 36.1017 61.7451 35.9587 62.146 35.6908C62.547 35.4229 62.8596 35.0421 63.044 34.5966C63.2284 34.151 63.2767 33.6608 63.1828 33.1879C63.0884 32.7149 62.8563 32.2805 62.5153 31.9395C62.1743 31.5985 61.74 31.3663 61.2669 31.2722C60.7943 31.1781 60.3039 31.2265 59.8585 31.411C59.4131 31.5955 59.0322 31.908 58.7645 32.309C58.4963 32.7099 58.3535 33.1813 58.3535 33.6635C58.3519 33.9841 58.4141 34.3017 58.5363 34.5982C58.6579 34.8946 58.8378 35.164 59.0644 35.3906C59.291 35.6173 59.5603 35.7968 59.8569 35.9189C60.1534 36.0409 60.4711 36.1031 60.7915 36.1017ZM60.7915 32.2823C61.067 32.2823 61.3369 32.3641 61.5657 32.5176C61.795 32.671 61.9733 32.8889 62.0783 33.1438C62.1832 33.3987 62.2104 33.6791 62.1554 33.9494C62.101 34.2196 61.9677 34.4676 61.7717 34.6618C61.5762 34.856 61.3274 34.9877 61.0564 35.0402C60.786 35.0928 60.5055 35.0637 60.2517 34.9568C59.9974 34.8498 59.7808 34.6698 59.6292 34.4396C59.4776 34.2093 59.3976 33.9392 59.3998 33.6635C59.4026 33.2962 59.5503 32.9449 59.8113 32.6862C60.0718 32.4274 60.4244 32.2822 60.7915 32.2823Z" fill="#000000" stroke-width="2px" style="animation-duration: 5s;"></path><path class="fillCls1" d="M48.5586 30.3353C48.5586 31.0969 48.7846 31.8414 49.2078 32.4747C49.631 33.1079 50.2324 33.6015 50.936 33.893C51.6397 34.1844 52.4138 34.2606 53.1607 34.1121C53.9077 33.9635 54.5935 33.5967 55.1322 33.0582C55.6709 32.5196 56.0374 31.8335 56.1863 31.0865C56.3346 30.3396 56.2585 29.5653 55.9669 28.8616C55.6754 28.158 55.1822 27.5566 54.5486 27.1334C53.9155 26.7103 53.1713 26.4845 52.4094 26.4845C51.3881 26.4845 50.4084 26.8902 49.6865 27.6124C48.9645 28.3345 48.5586 29.314 48.5586 30.3353ZM52.4094 27.5309C52.9642 27.5309 53.5062 27.6953 53.9677 28.0035C54.4286 28.3117 54.7879 28.7497 55.0001 29.2621C55.2128 29.7745 55.2683 30.3384 55.16 30.8824C55.0517 31.4264 54.7846 31.9261 54.3925 32.3183C54.0004 32.7105 53.5006 32.9776 52.9564 33.0858C52.4127 33.194 51.8485 33.1385 51.3364 32.9262C50.8239 32.714 50.3857 32.3545 50.0775 31.8933C49.7692 31.4321 49.6049 30.8899 49.6049 30.3353C49.6049 29.5915 49.9003 28.8782 50.4262 28.3523C50.9521 27.8263 51.6658 27.5309 52.4094 27.5309Z" fill="#000000" stroke-width="2px" style="animation-duration: 5s;"></path><path class="fillCls1" d="M8.18885 33.8305C12.7931 37.5452 18.9041 39.5857 25.4023 39.5857C31.9005 39.5857 38.0116 37.5452 42.6158 33.8305C47.2198 30.1157 49.8044 25.1034 49.8044 19.7876C49.8044 14.4719 47.2515 9.50142 42.6158 5.75528C37.9801 2.00913 31.9005 0 25.4023 0C18.9041 0 12.7931 2.04051 8.18885 5.75528C3.58464 9.46999 1 14.4823 1 19.7876C1 25.0929 3.55326 30.0843 8.18885 33.8305ZM25.4023 1.04638C38.2836 1.04638 48.7581 9.44911 48.7581 19.7876C48.7581 30.1262 38.2836 38.5393 25.4023 38.5393C12.521 38.5393 2.04638 30.1262 2.04638 19.7876C2.04638 9.44911 12.521 1.04638 25.4023 1.04638Z" fill="#000000" stroke-width="2px" style="animation-duration: 5s;"></path><path class="fillCls1" d="M65.9499 58.4526C66.0838 58.4181 66.1987 58.3337 66.2726 58.2171C66.3464 58.1005 66.3731 57.9605 66.3476 57.825C66.3331 57.7573 66.3048 57.6934 66.2654 57.6368C66.2254 57.5801 66.1748 57.5324 66.1165 57.4952C66.0582 57.458 65.9932 57.433 65.9249 57.4213C65.8572 57.4096 65.7872 57.4119 65.72 57.4274C62.6434 58.1072 56.8256 61.0372 52.3989 63.5484C47.9728 66.0603 42.364 69.6495 40.0514 72.0663C36.3994 75.8966 35.2274 81.5572 37.2051 85.8162C38.9317 89.552 42.7407 91.6445 45.6392 92.7436C45.6999 92.7641 45.7635 92.7747 45.8276 92.7747H45.9427L55.2978 95.6841L59.1691 96.9081C61.5866 97.6828 64.0873 98.4881 66.5675 99.1895C67.3838 99.4194 68.3357 99.6498 69.2565 99.6498C69.8629 99.661 70.4632 99.5354 71.0147 99.2833C71.3351 99.1256 71.6372 98.9329 71.9143 98.708C73.8503 99.2522 76.4976 99.8592 78.3708 100.246C78.7085 100.318 79.0139 100.498 79.2394 100.759C80.0668 101.727 81.0043 102.594 82.0333 103.343C83.701 104.569 85.5814 105.474 87.5796 106.012L87.7156 106.033C87.8311 106.033 87.9439 105.995 88.0366 105.925C88.1288 105.855 88.1965 105.757 88.2282 105.646C88.2632 105.513 88.2449 105.371 88.176 105.251C88.1077 105.132 87.995 105.044 87.8617 105.007C85.9868 104.499 84.2203 103.652 82.6509 102.507C81.6884 101.801 80.8104 100.986 80.0346 100.079C79.8119 99.8276 79.5465 99.6187 79.2499 99.4616C79.4593 98.7291 79.7103 97.986 79.9824 97.2324L79.0406 96.772C78.7407 97.5745 78.4791 98.3698 78.2558 99.1578L76.4249 98.7502C76.4249 98.7396 76.4249 98.7396 76.4349 98.7291C76.7386 97.7661 77.063 96.8559 77.3978 95.9768L76.5187 95.5481L76.456 95.5164C76.1 96.4372 75.7551 97.4001 75.4308 98.4153C75.4203 98.4464 75.4203 98.4781 75.4097 98.5197L72.7935 97.8711C72.9401 97.6928 73.0761 97.5256 73.2016 97.3479C74.2274 96.1551 75.3047 94.2502 75.7024 93.1517L75.7757 92.9318C76.3827 91.2469 77.0002 89.5103 76.7386 87.7105L79.522 89.1127C79.4176 89.3215 79.2816 89.5625 79.1555 89.8241L79.2816 89.8657L80.0974 90.2634C80.2229 90.0124 80.3484 89.7824 80.4534 89.5836L82.0439 90.3889L81.6773 91.0381L82.6192 91.4879L82.9752 90.8598L84.7123 91.7389C84.7851 91.7711 84.8628 91.7889 84.9422 91.7911C85.0622 91.7945 85.1788 91.7562 85.2738 91.6834C85.3687 91.6107 85.4359 91.5074 85.4637 91.3913C85.492 91.2752 85.4792 91.153 85.4281 91.0448C85.3771 90.9365 85.291 90.8493 85.1832 90.7971L76.5082 86.4232L76.3621 86.3815C76.3116 86.2449 76.2522 86.1122 76.1838 85.9839C75.232 84.079 73.5993 82.6668 71.0563 81.5572C70.5127 81.3167 70.1356 81.1596 70.115 81.1596C67.7498 80.1761 61.3461 77.5915 56.3857 75.5928C56.2569 75.54 56.112 75.5406 55.9837 75.595C55.8548 75.6489 55.7532 75.7516 55.7005 75.8805C55.6477 76.0099 55.6483 76.1542 55.7021 76.2831C55.7565 76.4114 55.8593 76.5136 55.9881 76.5658C60.9485 78.5644 67.3522 81.149 69.7174 82.1226L70.6382 82.5096C72.9506 83.5248 74.4156 84.7804 75.2525 86.4548C76.2572 88.4741 75.5458 90.4727 74.7922 92.5864L74.7083 92.7958C74.3945 93.6749 73.5782 95.1504 72.7518 96.2383C72.6596 96.285 72.583 96.3577 72.5319 96.4477C72.4902 96.5316 72.4275 96.6154 72.3753 96.6987L72.302 96.7931C72.2609 96.8354 72.2287 96.8848 72.2076 96.9398C71.7577 97.5256 71.1296 98.0699 70.5543 98.342C69.508 98.844 67.9486 98.4986 66.8607 98.1848C64.3911 97.484 61.9003 96.6887 59.4935 95.914L55.6116 94.6795L45.3149 91.4668H45.2311C42.6465 90.3683 39.5805 88.4846 38.147 85.3874C36.3471 81.505 37.4458 76.3253 40.8153 72.7988C44.7812 68.6343 60.5192 59.656 65.9499 58.4526Z" fill="#000000" stroke-width="2px" style="animation-duration: 5s;"></path><path class="fillCls1" d="M81.197 93.4763C81.2642 93.4625 81.3281 93.4358 81.3853 93.3975C81.442 93.3586 81.4908 93.3092 81.5286 93.252C81.5669 93.1948 81.593 93.1304 81.6063 93.0632C81.6191 92.9954 81.6186 92.926 81.6052 92.8588C81.5913 92.7916 81.5647 92.7277 81.5258 92.6705C81.4875 92.6139 81.4381 92.565 81.3809 92.5273C81.3237 92.4889 81.2592 92.4628 81.1921 92.4501C81.1243 92.4367 81.0549 92.4373 80.9877 92.4506L79.5016 92.7649H79.491L79.4388 92.7855H79.3972L79.345 92.8171L79.3028 92.8382L79.2717 92.8694C79.2528 92.8777 79.2383 92.8927 79.2295 92.911L79.1984 92.9427L79.1667 92.9949H79.1567L78.0577 94.9308C78.0221 94.9897 77.9988 95.0552 77.9894 95.1229C77.9799 95.1907 77.9838 95.2601 78.0016 95.3262C78.0188 95.3928 78.0499 95.455 78.0916 95.5095C78.1338 95.5633 78.186 95.6089 78.2459 95.6422C78.3242 95.6922 78.4153 95.7172 78.5075 95.7155C78.6003 95.7149 78.6908 95.6894 78.7702 95.6416C78.8496 95.5939 78.914 95.525 78.9579 95.4434L79.952 93.7168L81.197 93.4763Z" fill="#000000" stroke-width="2px" style="animation-duration: 5s;"></path><path class="fillCls1" d="M147.476 113.923H123.283C123.084 110.564 123.095 109.685 123.325 106.556C123.335 106.462 123.317 106.367 123.272 106.284C124.85 103.992 126.117 101.501 127.04 98.8758C127.552 97.3686 127.835 95.9247 128.253 93.7377C128.369 93.1307 128.494 92.461 128.651 91.7179C128.913 90.379 129.132 88.9867 129.321 87.449C130.043 81.7145 129.907 77.445 129.76 75.4152C129.3 68.9898 128.996 64.7414 125.752 61.205C123.879 59.1746 121.651 58.0967 119.683 57.1448C116.147 55.4388 113.018 54.9262 111.145 54.6124C109.394 54.3281 107.624 54.1743 105.85 54.1521C105.25 53.1552 104.513 52.2467 103.663 51.452C102.627 50.479 101.654 49.9142 100.952 49.506L102.951 37.106C103.014 36.9595 103.087 36.8234 103.15 36.6769C105.086 32.4808 106.802 28.3579 106.477 23.9212C106.132 19.0972 103.935 14.2314 100.429 10.5585C97.4681 7.45064 93.6801 5.37875 89.7666 4.71956C89.1179 4.61488 88.4587 4.54163 87.799 4.49981C80.6 4.09168 73.5055 8.05758 70.1356 14.3779C69.9196 14.7853 69.6069 15.1336 69.2254 15.3929C68.3474 15.9768 67.5816 16.7141 66.9651 17.5694C64.9037 20.4471 65.2702 23.7433 65.469 25.5117C66.2115 32.1564 71.7367 36.4362 73.5577 37.8489L73.7143 37.9745C74.9177 40.6428 76.3722 43.8448 77.7744 46.3143C78.0676 46.8376 78.3814 47.3607 78.6852 47.8839L78.7479 47.9677C79.1711 48.4325 79.6532 48.8407 80.1813 49.1817C80.7422 49.5399 81.352 49.8148 81.9917 49.9975C82.5087 50.1469 83.0441 50.2208 83.5822 50.2174H83.6344C83.4356 51.2432 83.1429 52.049 82.7659 52.6243C81.6357 54.2987 79.6265 54.6963 73.4427 55.6798C72.1449 55.8892 70.8892 56.1296 69.6963 56.3912C69.6286 56.4062 69.5647 56.434 69.5086 56.474C69.452 56.5134 69.4037 56.5639 69.3665 56.6222C69.3298 56.6805 69.3048 56.7461 69.2932 56.8138C69.2815 56.8821 69.2832 56.9516 69.2987 57.0193C69.3226 57.1343 69.3859 57.2381 69.4775 57.3125C69.5686 57.387 69.683 57.4275 69.8007 57.4275H69.9163C71.088 57.1654 72.3331 56.9355 73.6099 56.7261C75.9223 56.3601 77.7117 56.0669 79.135 55.7426L74.6878 60.9117C74.4951 61.1366 74.3585 61.4043 74.2891 61.6925C74.2202 61.9808 74.2202 62.2812 74.2896 62.5689C74.359 62.8571 74.4956 63.1242 74.6889 63.3491C74.8816 63.5741 75.1254 63.7501 75.3992 63.8628L78.4336 65.1185L74.2063 67.8391C73.9225 68.0207 73.6787 68.2579 73.4894 68.5361C73.2994 68.8149 73.1689 69.1292 73.1039 69.4596C73.0395 69.7901 73.0429 70.1305 73.1134 70.4598C73.1845 70.7891 73.3211 71.1007 73.5155 71.3761L86.3762 89.6987C86.4234 89.7681 86.4878 89.8247 86.5628 89.8631C86.6377 89.9014 86.721 89.9208 86.8049 89.918C86.8738 89.9197 86.9415 89.9053 87.0037 89.8764C87.1142 89.8308 87.2053 89.7486 87.262 89.6437C87.3192 89.5393 87.3391 89.4182 87.318 89.301L80.8927 55.2194C82.1589 54.7485 82.9963 54.1521 83.6344 53.2102C84.1265 52.4671 84.4924 51.4314 84.7124 50.1336L85.1411 50.0708C85.7803 49.9559 86.4128 49.8054 87.0354 49.621C87.1859 50.1264 87.4758 50.579 87.8717 50.9266C88.2682 51.2748 88.7542 51.5042 89.2745 51.588L90.97 51.8601C90.9472 52.0845 90.9617 52.3105 91.0116 52.5299C91.0594 52.671 91.1266 52.8048 91.2105 52.9275C90.7923 53.1236 90.4691 53.4773 90.3108 53.911C90.2503 54.1298 90.2347 54.3586 90.2653 54.5836C90.2958 54.8085 90.3719 55.0245 90.4885 55.2194C90.5751 55.3688 90.6768 55.5093 90.7917 55.6376C90.0387 56.0669 89.5255 56.7155 89.3795 57.448C89.3084 57.7252 89.3378 58.0178 89.4628 58.2749C89.5888 58.5049 89.8921 58.8714 90.614 58.8714L90.8967 58.8503C91.7025 58.7664 92.4555 58.6304 93.1881 58.4943L94.8519 58.2227C94.9696 59.6211 95.2501 61.0017 95.6893 62.3351C95.6316 62.4034 95.5955 62.4867 95.5844 62.5756L91.5453 89.4682C91.537 89.5026 91.5337 89.5376 91.5348 89.5732V93.8949L91.3987 93.811C89.9548 92.9108 88.8458 92.3671 87.0037 91.6763C86.9382 91.6429 86.8665 91.6235 86.7927 91.6196C86.7194 91.6157 86.6455 91.6274 86.5772 91.654C86.5083 91.6807 86.4461 91.7218 86.3939 91.774C86.3423 91.8262 86.3023 91.889 86.2762 91.9578C86.2501 92.0267 86.239 92.1005 86.2434 92.1739C86.2479 92.2477 86.2679 92.3194 86.3023 92.3843C86.3362 92.4499 86.3839 92.5071 86.4417 92.5526C86.4995 92.5987 86.5661 92.6315 86.6377 92.6492C88.4271 93.3295 89.4528 93.8321 90.8545 94.7107H90.865C91.7419 95.2227 92.56 95.8297 93.3036 96.5211C94.1449 97.263 94.8746 98.1233 95.4694 99.0746C96.1181 100.142 96.4218 101.052 96.6623 101.774C97.0033 102.825 97.2349 103.909 97.3532 105.007C97.4459 106.045 97.4359 107.09 97.3215 108.126C97.2482 108.827 97.1332 109.309 96.7773 109.653C96.4218 109.999 96.3485 109.947 96.3169 109.936C96.2686 109.909 96.2286 109.869 96.2019 109.821C96.1386 109.732 96.0492 109.665 95.9459 109.63C95.8426 109.593 95.731 109.591 95.6266 109.622C95.6571 109.512 95.6816 109.4 95.6999 109.287C95.9887 108.09 96.1642 106.867 96.223 105.635C96.2541 104.997 96.2541 104.338 96.233 103.689C96.2291 103.55 96.1703 103.419 96.0692 103.324C95.9681 103.229 95.8332 103.177 95.6943 103.181C95.5555 103.186 95.4244 103.245 95.3289 103.346C95.2339 103.447 95.1829 103.582 95.1867 103.721C95.2078 104.338 95.2078 104.966 95.1762 105.583C95.1029 107.132 94.9041 108.032 94.6847 109.067C94.517 109.832 94.4126 110.104 94.1821 110.386C94.0811 110.502 93.965 110.604 93.8372 110.69C93.7129 110.777 93.5668 110.828 93.4152 110.838C93.2636 110.847 93.1125 110.814 92.9787 110.742L92.7699 110.637C92.7105 110.607 92.6471 110.586 92.5811 110.575L92.6966 110.292C92.9926 109.532 93.2064 108.743 93.3347 107.937C93.4918 107.069 93.6173 106.18 93.7217 105.29C93.7367 105.153 93.6967 105.015 93.6101 104.907C93.524 104.8 93.3985 104.73 93.2614 104.715C93.1925 104.706 93.1231 104.711 93.0559 104.729C92.9892 104.748 92.9265 104.779 92.8721 104.822C92.8176 104.865 92.7721 104.918 92.7382 104.979C92.7049 105.04 92.6832 105.106 92.6755 105.175C92.5811 106.044 92.4555 106.912 92.3095 107.76C92.1895 108.497 91.9929 109.219 91.723 109.915C91.3782 110.784 91.1794 110.92 91.1794 110.92C90.9805 110.993 90.719 110.826 90.4047 110.407C90.3819 110.365 90.3541 110.326 90.3208 110.292C90.2458 110.217 90.1503 110.165 90.0459 110.145C89.9415 110.124 89.8332 110.135 89.7349 110.177C90.6662 108.911 91.2943 107.488 91.6603 106.462C91.6864 106.397 91.6986 106.327 91.6969 106.257C91.6953 106.187 91.6792 106.119 91.6503 106.055C91.622 105.991 91.5803 105.934 91.5292 105.886C91.4776 105.839 91.4176 105.802 91.3515 105.778C91.286 105.754 91.216 105.744 91.146 105.748C91.0761 105.752 91.0078 105.769 90.945 105.8C90.8823 105.83 90.8262 105.873 90.7801 105.926C90.734 105.979 90.699 106.04 90.6768 106.106C90.2791 107.215 89.5783 108.806 88.4793 110.083C88.0711 110.554 87.4013 111.025 86.7421 110.92L86.5961 110.878C86.5855 110.857 86.5855 110.71 86.711 110.449C87.0565 109.748 87.5374 109.151 88.0505 108.513C88.5631 107.875 89.1074 107.184 89.4944 106.379C89.5555 106.254 89.5644 106.109 89.5194 105.978C89.4739 105.846 89.3784 105.738 89.254 105.677C89.129 105.616 88.9846 105.607 88.8536 105.652C88.722 105.698 88.6137 105.793 88.5526 105.918C88.2177 106.619 87.7362 107.215 87.2236 107.854C86.711 108.492 86.1668 109.193 85.7692 109.988C85.3716 110.784 85.612 111.349 85.8108 111.569C86.0163 111.784 86.2901 111.921 86.5855 111.956L86.931 111.976C87.7468 111.976 88.6048 111.537 89.2745 110.763L89.4317 110.575C89.4167 110.649 89.4195 110.725 89.4395 110.797C89.4595 110.87 89.4961 110.937 89.5466 110.993L89.5677 111.025C90.122 111.768 90.6457 111.987 91.0744 111.987C91.2393 111.984 91.4021 111.953 91.5559 111.893C91.7891 111.799 91.9868 111.635 92.1207 111.422C92.169 111.479 92.2256 111.528 92.2884 111.569L92.4978 111.673C92.7671 111.809 93.0642 111.88 93.3663 111.883C93.7478 111.882 94.1199 111.765 94.4337 111.548C94.6358 111.405 94.8219 111.24 94.9879 111.056C95.1368 110.869 95.2634 110.665 95.365 110.449C95.5294 110.692 95.7737 110.87 96.0553 110.951C96.148 110.971 96.243 110.982 96.338 110.982C96.9133 110.982 97.3531 110.554 97.5098 110.396C98.1484 109.779 98.2845 108.953 98.3678 108.241C98.4905 107.128 98.4977 106.006 98.3889 104.892C98.2611 103.723 98.0157 102.57 97.6564 101.45C97.0105 99.2434 95.7471 97.2686 94.015 95.7575C93.5607 95.3421 93.082 94.9539 92.5811 94.5957V89.7092L98.0856 81.2124C98.7554 84.6023 99.8955 89.6148 101.403 95.7781C103.244 103.312 108.121 112.228 115.832 112.583H115.864C115.998 112.581 116.127 112.528 116.224 112.435C116.321 112.342 116.379 112.216 116.387 112.081C116.39 112.012 116.379 111.944 116.355 111.879C116.332 111.815 116.295 111.755 116.249 111.705C116.202 111.654 116.146 111.614 116.083 111.585C116.021 111.556 115.953 111.54 115.885 111.537C112.568 111.38 109.585 109.497 107.022 105.928C105.034 103.166 103.359 99.3778 102.417 95.527C100.461 87.4906 99.1214 81.4423 98.6293 78.3974C98.6293 78.3557 98.6193 78.3135 98.6193 78.2824C98.6049 78.2341 98.5943 78.1852 98.5877 78.1358C98.5771 78.0936 98.5771 78.0625 98.5666 78.0208C98.5566 77.9786 98.5566 77.9997 98.5566 77.9892C98.3578 76.8069 98.4933 75.3941 98.5982 74.6199C98.8809 72.5585 101.403 71.9826 103.244 71.5538L103.694 71.4489C106.467 70.7897 107.744 70.5181 109.083 70.9468C109.522 71.0935 110.862 71.5327 111.919 72.8095C112.725 73.793 113.217 75.2269 114.179 78.0836C114.368 78.6378 114.493 79.0355 114.493 79.0355C115.289 81.5678 117.423 88.5263 119.066 93.926C119.101 94.032 119.168 94.1242 119.258 94.1898C119.348 94.2553 119.456 94.2914 119.568 94.2925L119.725 94.2714C119.857 94.2281 119.967 94.1348 120.032 94.012C120.096 93.8888 120.11 93.7455 120.071 93.6122C118.417 88.2231 116.293 81.2646 115.487 78.7217C115.487 78.7006 115.362 78.3135 115.173 77.7487C114.158 74.7665 113.656 73.2699 112.725 72.1397C112.071 71.3595 111.253 70.7336 110.328 70.3088C110.339 70.2565 110.339 70.2032 110.328 70.1516L109.554 65.4845C109.407 64.6059 109.031 63.8834 108.528 63.5485C108.411 63.4586 108.275 63.3952 108.131 63.363C107.986 63.3303 107.836 63.3297 107.691 63.3603L98.5144 65.3378L98.2845 65.4217C96.9655 63.4758 95.9509 60.242 95.867 57.6158V57.5735C95.8632 57.5697 95.8604 57.5647 95.8587 57.5591C95.857 57.5536 95.8559 57.548 95.8565 57.5424C95.8565 57.5213 95.8459 57.5108 95.8459 57.4902L95.8254 57.4375L95.8043 57.3958C95.8043 57.3747 95.7937 57.3647 95.7832 57.3436L95.7521 57.312C95.7415 57.3014 95.731 57.2809 95.7099 57.2703C95.6893 57.2598 95.6999 57.2492 95.6893 57.2387L95.6366 57.2076L95.6055 57.1865L95.5533 57.1554H95.5111C95.5111 57.1537 95.5111 57.1526 95.5105 57.1509C95.51 57.1498 95.5094 57.1487 95.5083 57.1476C95.5072 57.147 95.5061 57.1459 95.505 57.1454C95.5033 57.1448 95.5022 57.1448 95.5011 57.1448C95.43 57.1209 95.355 57.1143 95.2811 57.1237C94.4753 57.2181 93.7323 57.3436 92.9998 57.4797C92.2673 57.6158 91.5559 57.7413 90.7817 57.8251C90.6523 57.8423 90.5207 57.8357 90.3941 57.804C90.3885 57.7551 90.3924 57.7052 90.4047 57.6574C90.5096 57.1237 91.0011 56.6322 91.723 56.3601C92.7593 55.9625 94.0044 55.983 95.2078 56.0147H96.0242C96.1625 56.0147 96.2958 55.9597 96.3941 55.8614C96.4924 55.7631 96.5473 55.6304 96.5473 55.4916C96.5473 55.3527 96.4924 55.2194 96.3941 55.1217C96.2958 55.0234 96.1625 54.9684 96.0242 54.9684H95.2289C94.4964 54.9368 93.7628 54.9473 93.0314 54.9995C92.6394 55.0389 92.2506 55.1089 91.8697 55.2089C91.6775 55.0778 91.517 54.9068 91.3987 54.7068C91.3537 54.638 91.3232 54.5608 91.3088 54.4797C91.2943 54.3986 91.2965 54.3159 91.3154 54.2359C91.3482 54.1504 91.3987 54.0726 91.4637 54.0077C91.5287 53.9427 91.6064 53.8922 91.6919 53.8588C92.3722 53.5345 93.3663 53.5451 94.1616 53.5556H94.2349C94.8835 53.5556 95.5427 53.6078 96.1808 53.6706L97.1121 53.7755H97.2587C97.3831 53.7539 97.4959 53.6883 97.5758 53.5912C97.6558 53.4934 97.698 53.3696 97.6941 53.2435C97.6902 53.1174 97.6408 52.9969 97.5553 52.9042C97.4692 52.8115 97.3531 52.7531 97.2276 52.7393C96.2752 52.6349 95.2601 52.5299 94.2449 52.5193H94.1721C93.5246 52.4932 92.8765 52.5282 92.2362 52.6243C92.2001 52.571 92.1684 52.5149 92.1418 52.4566L92.0163 52.2578C91.9902 52.1223 91.9985 51.9823 92.0407 51.8507C92.0829 51.7191 92.1568 51.6002 92.2567 51.5047C92.3606 51.3987 92.4805 51.3098 92.6127 51.2432C92.9159 51.086 93.188 51.0443 93.9417 51.0543C95.0573 51.0316 96.1719 51.1232 97.2693 51.3265C97.8446 51.4314 98.4305 51.5569 99.0064 51.7141C99.1408 51.7485 99.2835 51.7285 99.4035 51.6574C99.5229 51.5869 99.6101 51.472 99.6445 51.337C99.6795 51.2026 99.6589 51.0599 99.5884 50.9399C99.5179 50.82 99.4024 50.7333 99.268 50.6989C98.6715 50.5418 98.0645 50.4057 97.4576 50.2907C96.298 50.0808 95.1201 49.9864 93.9417 50.0081C93.5285 49.9881 93.1136 50.0158 92.7071 50.0919C92.2467 49.6943 91.8908 49.2023 91.8802 48.9407C91.8697 48.6791 92.0374 48.5536 92.2673 48.4387C93.0731 48.041 94.1616 48.2504 95.1134 48.4387L95.2389 48.4598C95.9154 48.5936 96.5829 48.7685 97.2376 48.9829C98.3422 49.36 99.4079 49.8437 100.419 50.4268C101.12 50.835 101.989 51.337 102.951 52.2372C103.796 53.0364 104.522 53.9521 105.107 54.9579C105.661 55.8253 106.1 56.7611 106.415 57.7413C106.676 58.5565 106.845 59.399 106.917 60.2525C106.938 60.3875 106.948 60.5241 106.948 60.6607C106.959 60.7929 107.018 60.9167 107.115 61.0078C107.212 61.0989 107.339 61.1505 107.472 61.1522H107.503C107.572 61.1483 107.639 61.1311 107.701 61.1011C107.763 61.0706 107.819 61.0289 107.864 60.9773C107.91 60.9256 107.945 60.8656 107.967 60.8007C107.99 60.7357 107.999 60.6668 107.995 60.598C107.939 59.52 107.741 58.4543 107.409 57.4275C107.173 56.6656 106.861 55.9292 106.477 55.23C107.985 55.2816 109.488 55.4288 110.977 55.6693C112.787 55.9625 115.832 56.4645 119.223 58.1072C121.201 59.0597 123.241 60.0432 124.989 61.9375C127.982 65.2023 128.274 69.3041 128.714 75.509C128.86 77.5077 128.996 81.6934 128.285 87.344C128.097 88.8512 127.877 90.2218 127.615 91.5296C127.468 92.2833 127.343 92.953 127.228 93.57C126.799 95.778 126.537 97.1175 126.046 98.5614C124.583 102.727 122.23 106.523 119.15 109.685C119.054 109.786 119.002 109.92 119.004 110.059C119.006 110.197 119.062 110.33 119.16 110.428C119.26 110.519 119.39 110.571 119.526 110.575C119.668 110.574 119.803 110.517 119.903 110.418C120.711 109.578 121.476 108.698 122.195 107.781C122.048 109.978 122.069 111.108 122.237 113.944H66.3476C66.8185 111.234 66.9341 110.313 67.1851 107.561C67.3944 105.227 67.551 102.863 67.6665 100.529C67.6704 100.46 67.661 100.391 67.6388 100.326C67.616 100.261 67.581 100.201 67.5355 100.15C67.4899 100.098 67.4344 100.056 67.3722 100.026C67.3106 99.9959 67.2434 99.9781 67.1745 99.9742C67.0346 99.9687 66.898 100.018 66.7947 100.112C66.6908 100.206 66.6281 100.337 66.6197 100.477C66.5153 102.8 66.3476 105.154 66.1388 107.466C65.8872 110.24 65.7723 111.129 65.2802 113.944H40.1248C39.986 113.944 39.8529 113.999 39.7548 114.097C39.6567 114.195 39.6016 114.328 39.6016 114.467C39.6016 114.606 39.6567 114.739 39.7548 114.837C39.8529 114.935 39.986 114.99 40.1248 114.99H147.476C147.615 114.99 147.748 114.935 147.846 114.837C147.944 114.739 147.999 114.606 147.999 114.467C148.002 114.397 147.991 114.327 147.966 114.261C147.941 114.194 147.902 114.134 147.854 114.083C147.805 114.033 147.746 113.992 147.681 113.965C147.616 113.937 147.546 113.923 147.476 113.923ZM74.374 70.7691C74.2607 70.6097 74.1813 70.4298 74.1397 70.2388C74.0986 70.0483 74.0964 69.8511 74.133 69.6595C74.168 69.4668 74.2424 69.2836 74.3524 69.1214C74.4623 68.9593 74.6051 68.8215 74.7717 68.7182L79.8464 65.4534C79.9264 65.4 79.9897 65.3262 80.0302 65.2395C80.0708 65.1529 80.0869 65.0568 80.0769 64.9613C80.0697 64.8675 80.0369 64.7781 79.9814 64.702C79.9258 64.6259 79.8497 64.5676 79.7626 64.5326L75.7968 62.8999C75.678 62.8471 75.573 62.7677 75.4897 62.6677C75.4064 62.5678 75.3475 62.45 75.3176 62.3234C75.287 62.1968 75.2859 62.0652 75.3148 61.9386C75.3437 61.8114 75.4009 61.6931 75.483 61.592L80.0241 56.2868L85.8425 87.1141L74.374 70.7691ZM91.7964 47.4862C91.1794 47.79 90.8023 48.3759 90.8339 48.9829C90.865 49.5899 91.3465 50.1863 91.713 50.5734L91.5559 50.7095L91.3987 50.8661L89.4422 50.5523C89.2145 50.5168 88.9957 50.4362 88.7991 50.3157C88.6026 50.1952 88.4315 50.0375 88.2966 49.8503C88.1616 49.6637 88.0644 49.4522 88.0117 49.2278C87.9584 49.0034 87.95 48.7707 87.9878 48.5431L90.4569 33.2133C90.5318 32.7529 90.7834 32.3399 91.1583 32.0623C91.4593 31.8527 91.8169 31.7396 92.1834 31.7379C92.2784 31.7344 92.3734 31.7414 92.4661 31.7588L100.754 33.0877C100.982 33.1246 101.201 33.2061 101.397 33.3276C101.594 33.4491 101.765 33.6082 101.9 33.7958C102.035 33.9834 102.132 34.1958 102.185 34.4209C102.237 34.6459 102.246 34.8791 102.209 35.1073L99.9794 48.9829C99.1997 48.5936 98.3955 48.2543 97.5725 47.9677C96.8739 47.7367 96.1608 47.5512 95.4378 47.4129L95.3123 47.3924C94.2449 47.183 92.9265 46.9213 91.7964 47.4862ZM83.3729 7.93202C85.2144 7.1577 87.1503 6.88563 88.9713 7.16814C90.6035 7.40882 91.8386 8.0262 92.6649 8.43427C93.7212 8.9634 94.7141 9.60922 95.6266 10.3597C95.7115 10.4279 95.7732 10.5209 95.8026 10.6258C95.8321 10.7307 95.8282 10.8423 95.7915 10.9449C95.7543 11.0475 95.6866 11.1359 95.5971 11.198C95.5072 11.26 95.4006 11.2926 95.2917 11.291C95.169 11.2889 95.0507 11.2445 94.9568 11.1654C94.1066 10.4662 93.1797 9.86584 92.194 9.37608C91.4304 8.99934 90.2791 8.42383 88.8141 8.20408C86.7632 7.89014 84.9423 8.40289 83.781 8.89471C83.6544 8.94264 83.5145 8.93975 83.3901 8.8866C83.2657 8.83345 83.1668 8.73421 83.1141 8.60965C83.0613 8.48514 83.0585 8.34503 83.1068 8.21869C83.1552 8.09234 83.2507 7.9896 83.3729 7.93202ZM84.9634 49.0351C83.8543 49.2234 83.0485 49.2128 82.2744 48.9934C81.7335 48.8346 81.2192 48.5986 80.7466 48.292C80.3051 48.0171 79.9036 47.6823 79.5537 47.298C79.2605 46.8062 78.9673 46.2935 78.6852 45.7912C77.2829 43.3426 75.8285 40.1091 74.625 37.4408C74.434 36.945 74.2174 36.4595 73.9764 35.9863C73.5471 35.0655 72.9612 33.8098 72.3331 32.2297C72.4653 32.0925 72.6047 31.9632 72.7519 31.8425C73.4294 31.2945 74.2502 30.9531 75.1165 30.8589C75.1887 30.8555 75.2592 30.8374 75.3237 30.8056C75.3881 30.7738 75.4453 30.729 75.4919 30.6741C75.5386 30.6191 75.573 30.5551 75.5936 30.4861C75.6141 30.4172 75.6208 30.3447 75.6119 30.2733C75.603 30.2018 75.5797 30.1329 75.5436 30.0709C75.5069 30.0089 75.4581 29.955 75.3997 29.9127C75.3414 29.8705 75.2753 29.8407 75.2048 29.8252C75.1343 29.8098 75.0615 29.809 74.991 29.8229C73.9297 29.9383 72.9235 30.356 72.0927 31.0263L71.9355 31.1623C71.7994 30.7856 71.6528 30.3984 71.5173 29.9904C70.8787 28.0754 70.4394 26.7465 70.23 25.7942C70.0207 24.842 70.1462 24.4549 70.23 24.392C70.3139 24.3293 70.701 24.4235 71.1197 24.5595C71.5351 24.7 71.9577 24.8187 72.3853 24.9153C74.3946 25.3443 75.9851 24.9362 79.1661 24.12C80.6195 23.7502 82.0489 23.2925 83.4462 22.7492C84.0998 22.4971 84.8251 22.5079 85.471 22.779C86.1163 23.0502 86.6322 23.5607 86.9099 24.2037L89.3689 29.8753C89.4422 30.0569 89.5761 30.2079 89.7471 30.3031C89.9187 30.3983 90.1175 30.4319 90.3108 30.3984C90.5024 30.3696 90.6796 30.2779 90.8139 30.1378C90.9483 29.9978 91.0327 29.8171 91.0533 29.6241C91.0638 29.4986 91.0638 29.3206 91.0744 29.1114C91.0955 28.7347 91.1166 28.0441 91.1894 27.8452C91.3782 27.3429 92.0579 26.893 92.5605 26.9244C92.8904 26.9578 93.2053 27.0808 93.4707 27.2802C94.0566 27.6778 94.5487 28.337 94.8835 29.1637C95.1345 29.802 95.3961 30.5136 95.4589 31.1833L92.6338 30.7228C91.8985 30.608 91.1477 30.7845 90.5407 31.2146C90.2414 31.4297 89.9881 31.7026 89.796 32.0171C89.6038 32.3316 89.4761 32.6814 89.4211 33.0459L86.9515 48.3759C86.9393 48.4381 86.9326 48.5009 86.931 48.5642C86.284 48.7569 85.627 48.914 84.9634 49.0351ZM98.7343 66.3636L107.901 64.386C108.026 64.4276 108.382 64.8358 108.518 65.6627L109.23 69.9006C107.618 69.4402 106.028 69.8167 103.454 70.4343L103.014 70.5387C101.853 70.8002 100.346 71.1457 99.2052 71.9198L98.5355 67.8602C98.3889 66.9811 98.6293 66.4263 98.7343 66.3636ZM97.6042 66.2592C97.4226 66.8339 97.3865 67.4454 97.4992 68.0379L98.2739 72.6945C98.2845 72.7151 98.2845 72.7362 98.2945 72.7573C97.8941 73.2488 97.6397 73.8435 97.562 74.4733C97.447 75.3419 97.3004 76.9635 97.552 78.3135C97.6253 78.7534 97.7086 79.2554 97.8135 79.8307C97.7325 79.8763 97.6641 79.9412 97.6147 80.019L92.937 87.229L96.4007 64.1766C96.7173 64.8858 97.1032 65.5622 97.552 66.1964C97.5725 66.2275 97.5831 66.2486 97.6042 66.2592Z" fill="#000000" stroke-width="2px" style="animation-duration: 5s;"></path><path class="fillCls1" d="M17.7859 113.922H5.07202C4.93329 113.922 4.80018 113.977 4.70205 114.076C4.60397 114.174 4.54883 114.307 4.54883 114.446C4.54883 114.584 4.60397 114.718 4.70205 114.815C4.80018 114.914 4.93329 114.969 5.07202 114.969H17.7859C17.9247 114.969 18.0577 114.914 18.1559 114.815C18.254 114.718 18.3091 114.584 18.3091 114.446C18.3091 114.307 18.254 114.174 18.1559 114.076C18.0577 113.977 17.9247 113.922 17.7859 113.922Z" fill="#000000" stroke-width="2px" style="animation-duration: 5s;"></path><path class="fillCls3" d="M12.2392 30.7955L15.7446 24.988C15.7992 24.9458 15.8648 24.9203 15.9336 24.9147C16.0023 24.9092 16.0712 24.9237 16.1318 24.9565L17.7015 25.6367C18.3712 25.9192 19.1245 25.689 19.428 25.1135L22.0336 20.1117C22.0552 20.0854 22.0824 20.0643 22.1131 20.0499C22.1439 20.0354 22.1775 20.0279 22.2115 20.0279L25.1309 19.8187C25.3449 19.8087 25.5526 19.7438 25.734 19.6301C25.9155 19.5165 26.0646 19.358 26.1669 19.1699L30.3839 10.7045L29.777 15.9993L30.8234 16.1144L31.9222 6.44556L24.8694 13.1426L25.5809 13.9065L29.4422 10.2336L25.2251 18.699C25.2057 18.7244 25.1802 18.7445 25.1509 18.7573C25.1216 18.7701 25.0895 18.7752 25.0577 18.7722L22.1382 18.992C21.9273 18.9976 21.7214 19.0585 21.5415 19.1687C21.3614 19.2789 21.2136 19.4344 21.1127 19.6199L18.4967 24.6322C18.4653 24.6845 18.2979 24.7473 18.12 24.674L16.5399 23.9938C15.9016 23.7113 15.1796 23.9101 14.8552 24.4438L11.7578 29.5712V31.0257L12.2392 30.7955Z" fill="#FFEF00" stroke-width="2px" style="animation-duration: 5s;"></path><path class="fillCls4" d="M11.7578 32.1769L23.509 26.61C23.6885 26.5249 23.8926 26.5063 24.0846 26.5577L28.1446 27.6565C28.2362 27.6876 28.3355 27.6876 28.4271 27.6565L37.7925 24.9882L33.4709 28.1064L34.0882 28.954L41.9677 23.2511L32.2675 22.5605L32.1942 23.5964L37.4995 23.9836L28.2702 26.61L24.3566 25.5532C23.9252 25.4346 23.4658 25.4716 23.0591 25.6578L12.2392 30.7957L11.7578 31.0259V32.1769Z" fill="#35FFC9" stroke-width="2px" style="animation-duration: 5s;"></path><path class="fillCls1" d="M10.7109 33.1398C10.7109 33.2785 10.7661 33.4115 10.8642 33.5097C10.9623 33.6078 11.0954 33.663 11.2342 33.663L38.9955 33.2862C39.1342 33.2848 39.2667 33.2284 39.3639 33.1293C39.461 33.0302 39.5148 32.8966 39.5134 32.7578C39.512 32.619 39.4556 32.4865 39.3565 32.3894C39.2574 32.2922 39.1237 32.2384 38.985 32.2398L11.7574 32.6061V7.39801C11.7574 7.25928 11.7022 7.12617 11.6041 7.02809C11.506 6.92996 11.3729 6.87482 11.2342 6.87482C11.0954 6.87482 10.9623 6.92996 10.8642 7.02809C10.7661 7.12617 10.7109 7.25928 10.7109 7.39801V32.9514C10.7249 33.0134 10.7249 33.0777 10.7109 33.1398Z" fill="#000000" stroke-width="2px" style="animation-duration: 5s;"></path><path class="fillCls1" d="M87.0047 143.432C86.8659 143.43 86.7326 143.484 86.6332 143.581C86.5344 143.678 86.4777 143.811 86.4766 143.95C86.4749 144.089 86.5288 144.222 86.626 144.321C86.7232 144.42 86.8559 144.477 86.9942 144.478L111.543 144.865H111.554C111.693 144.867 111.826 144.813 111.925 144.716C112.024 144.618 112.081 144.486 112.082 144.347C112.084 144.209 112.03 144.075 111.933 143.976C111.835 143.877 111.703 143.82 111.564 143.819L87.0153 143.442L87.0047 143.432Z" fill="#000000" stroke-width="2px" style="animation-duration: 5s;"></path><path class="fillCls1" d="M74.7293 129.315C74.5905 129.314 74.4572 129.368 74.3578 129.465C74.259 129.562 74.2023 129.694 74.2012 129.833C74.1995 129.972 74.2534 130.106 74.3506 130.205C74.4478 130.304 74.58 130.36 74.7188 130.362L99.2679 130.739H99.2784C99.4145 130.736 99.5444 130.681 99.6416 130.586C99.7388 130.491 99.796 130.362 99.8016 130.226C99.7988 130.089 99.7449 129.957 99.65 129.858C99.5544 129.759 99.4256 129.7 99.289 129.692L74.7399 129.315H74.7293Z" fill="#000000" stroke-width="2px" style="animation-duration: 5s;"></path><path class="fillCls1" d="M115.037 130.163C115.038 130.094 115.026 130.026 115.001 129.962C114.976 129.897 114.939 129.839 114.891 129.79C114.843 129.74 114.787 129.7 114.723 129.673C114.661 129.645 114.593 129.63 114.524 129.629L102.993 129.378C102.855 129.378 102.722 129.431 102.622 129.527C102.523 129.623 102.464 129.753 102.459 129.891C102.457 129.959 102.47 130.027 102.495 130.092C102.52 130.156 102.557 130.214 102.605 130.264C102.652 130.313 102.709 130.353 102.772 130.381C102.835 130.408 102.903 130.423 102.972 130.425L114.503 130.676H114.513C114.651 130.676 114.782 130.622 114.88 130.526C114.978 130.43 115.034 130.3 115.037 130.163Z" fill="#000000" stroke-width="2px" style="animation-duration: 5s;"></path><path class="fillCls1" d="M71.1095 143.567C71.1079 143.636 71.1201 143.704 71.1451 143.768C71.1701 143.832 71.2073 143.89 71.255 143.94C71.3028 143.99 71.3594 144.029 71.4227 144.057C71.4855 144.085 71.5533 144.099 71.6221 144.101L83.1533 144.352H83.1639C83.2327 144.352 83.301 144.34 83.3644 144.314C83.4282 144.289 83.4865 144.25 83.5354 144.202C83.5843 144.154 83.6237 144.097 83.6504 144.034C83.6776 143.97 83.6915 143.903 83.6926 143.834C83.6931 143.765 83.6803 143.697 83.6548 143.633C83.6287 143.569 83.5909 143.512 83.5426 143.462C83.4949 143.413 83.4377 143.374 83.3744 143.347C83.311 143.321 83.2433 143.306 83.1744 143.306L71.6432 143.055C71.5744 143.053 71.506 143.065 71.4422 143.09C71.3778 143.115 71.3194 143.152 71.27 143.2C71.2206 143.248 71.1806 143.305 71.1528 143.368C71.1256 143.431 71.1106 143.498 71.1095 143.567Z" fill="#000000" stroke-width="2px" style="animation-duration: 5s;"></path><path class="fillCls1" d="M105.014 138.105C105.152 138.107 105.286 138.053 105.385 137.956C105.485 137.859 105.541 137.726 105.542 137.587C105.543 137.449 105.49 137.315 105.393 137.215C105.296 137.117 105.163 137.06 105.024 137.059L88.02 136.818H88.0095C87.8717 136.821 87.7401 136.877 87.6424 136.974C87.5452 137.072 87.4891 137.203 87.4863 137.342C87.4863 137.48 87.5413 137.613 87.6396 137.711C87.7379 137.809 87.8706 137.865 88.0095 137.865L105.014 138.105Z" fill="#000000" stroke-width="2px" style="animation-duration: 5s;"></path><path class="fillCls1" d="M73.2755 136.755C73.2743 136.824 73.2866 136.892 73.3116 136.956C73.3365 137.02 73.3738 137.079 73.4215 137.128C73.4687 137.177 73.5259 137.217 73.5887 137.245C73.652 137.272 73.7197 137.287 73.7881 137.288L83.1329 137.55H83.1434C83.2817 137.553 83.4161 137.501 83.516 137.405C83.616 137.308 83.6743 137.176 83.6771 137.037C83.6799 136.899 83.6271 136.765 83.531 136.664C83.435 136.564 83.3028 136.507 83.164 136.504L73.8197 136.242C73.6798 136.239 73.5448 136.292 73.4426 136.388C73.341 136.483 73.281 136.615 73.2755 136.755Z" fill="#000000" stroke-width="2px" style="animation-duration: 5s;"></path><path class="fillCls3" d="M114.169 138.565L114.672 136.567C114.85 135.855 114.117 135.269 113.039 135.259L110.015 135.238C108.938 135.227 107.912 135.803 107.734 136.515L107.232 138.524C107.054 139.235 107.776 139.821 108.854 139.832L111.889 139.853C112.966 139.853 113.981 139.287 114.169 138.565Z" fill="#FFEF00" stroke-width="2px" style="animation-duration: 5s;"></path><path class="fillCls1" d="M117.089 119.794L73.809 119.385H73.7984C73.6596 119.385 73.5269 119.44 73.4286 119.539C73.3303 119.637 73.2753 119.77 73.2753 119.908C73.2753 120.047 73.3303 120.181 73.4286 120.278C73.5269 120.377 73.6596 120.432 73.7984 120.432L117.078 120.84C117.334 120.839 117.586 120.895 117.818 121.004C118.05 121.112 118.254 121.271 118.418 121.468C118.579 121.666 118.695 121.897 118.759 122.144C118.822 122.391 118.83 122.65 118.784 122.901L114.42 146.613C114.334 147.096 114.08 147.533 113.703 147.847C113.326 148.161 112.85 148.332 112.359 148.329H112.327L68.1378 147.67C67.9484 147.669 67.7618 147.624 67.593 147.538C67.4242 147.453 67.2775 147.33 67.1643 147.178C67.0504 147.028 66.9732 146.853 66.9388 146.668C66.9043 146.482 66.9138 146.292 66.9654 146.111L72.2707 126.134C72.2879 126.068 72.2918 125.998 72.2823 125.931C72.2729 125.862 72.2496 125.797 72.2146 125.737C72.1796 125.678 72.1335 125.626 72.0785 125.585C72.0235 125.544 71.9608 125.514 71.8941 125.496C71.8275 125.479 71.7581 125.475 71.6898 125.485C71.622 125.495 71.5565 125.517 71.4971 125.552C71.4376 125.587 71.386 125.634 71.3443 125.689C71.3033 125.744 71.2733 125.806 71.256 125.873L65.9503 145.839C65.8597 146.174 65.8464 146.526 65.9125 146.867C65.978 147.208 66.1208 147.53 66.3296 147.807C66.5384 148.085 66.8083 148.311 67.1182 148.468C67.4275 148.626 67.769 148.711 68.1167 148.716L112.317 149.375H112.359C113.095 149.377 113.808 149.121 114.375 148.65C114.941 148.18 115.324 147.525 115.456 146.801L119.809 123.09C119.887 122.69 119.874 122.278 119.773 121.883C119.671 121.488 119.483 121.121 119.224 120.808C118.964 120.493 118.638 120.238 118.269 120.063C117.9 119.887 117.497 119.796 117.089 119.794Z" fill="#000000" stroke-width="2px" style="animation-duration: 5s;"></path><path class="fillCls1" d="M115.738 124.837C115.807 124.837 115.875 124.825 115.939 124.799C116.003 124.774 116.06 124.735 116.11 124.688C116.159 124.639 116.198 124.582 116.225 124.519C116.252 124.455 116.266 124.388 116.266 124.319C116.267 124.25 116.255 124.182 116.229 124.118C116.203 124.054 116.165 123.997 116.117 123.947C116.069 123.898 116.011 123.859 115.949 123.832C115.885 123.805 115.817 123.791 115.749 123.791L91.1997 123.414H91.1892C91.0525 123.414 90.9209 123.467 90.8232 123.563C90.7254 123.659 90.6688 123.79 90.666 123.927C90.666 124.064 90.7193 124.197 90.8149 124.297C90.9104 124.396 91.0409 124.455 91.1792 124.46L115.728 124.837H115.738Z" fill="#000000" stroke-width="2px" style="animation-duration: 5s;"></path><path class="fillCls3" d="M60.3479 122.213L40.0938 135.879L41.0571 137.306L61.3109 123.641L60.3479 122.213Z" fill="#FFEF00" stroke-width="2px" style="animation-duration: 5s;"></path><path class="fillCls1" d="M64.7585 119.395L60.4995 120.745C60.409 120.771 60.324 120.815 60.2507 120.875C60.1769 120.934 60.1158 121.007 60.0708 121.09L38.7553 135.416L38.6716 135.3L36.359 136.891C36.2741 136.951 36.2089 137.034 36.1716 137.131C36.1343 137.228 36.1267 137.334 36.1497 137.435L36.3067 138.146C36.4632 138.831 36.8653 139.434 37.4369 139.842L38.0542 140.271C38.1395 140.336 38.2434 140.372 38.3507 140.375C38.4581 140.376 38.5632 140.343 38.6507 140.281L40.9633 138.691L40.89 138.576L62.2055 124.251C62.3921 124.232 62.5648 124.142 62.6865 123.999L65.5432 120.556C65.6426 120.435 65.6998 120.284 65.7064 120.127C65.7137 119.97 65.6698 119.815 65.5815 119.685C65.4937 119.555 65.366 119.456 65.2177 119.404C65.07 119.352 64.909 119.349 64.7585 119.395ZM60.0391 122.377L61.0021 123.8L40.7435 137.415L39.7808 135.981L60.0391 122.377Z" fill="#000000" stroke-width="2px" style="animation-duration: 5s;"></path><path class="fillCls1" d="M93.627 65.7256C93.6043 65.6601 93.5693 65.5995 93.5237 65.5479C93.4776 65.4957 93.4221 65.4535 93.3599 65.4235C93.2972 65.3929 93.23 65.3757 93.1605 65.3718C93.0917 65.368 93.0223 65.378 92.9573 65.4013C91.6389 65.83 89.5669 66.2382 87.2122 65.6834C86.2032 65.449 85.2363 65.0608 84.345 64.5327C84.2245 64.4633 84.0812 64.4444 83.9468 64.4811C83.8124 64.5172 83.698 64.6055 83.6286 64.726C83.5592 64.847 83.5403 64.9903 83.5769 65.1247C83.613 65.2591 83.7013 65.3735 83.8218 65.4429C84.8059 66.0188 85.8711 66.442 86.9823 66.6986C87.8181 66.9018 88.675 67.0034 89.5352 67.0018C90.8114 66.9946 92.0787 66.7896 93.2922 66.3953C93.4227 66.3476 93.5304 66.2515 93.5926 66.1271C93.6553 66.0022 93.6676 65.8589 93.627 65.7256Z" fill="#000000" stroke-width="2px" style="animation-duration: 5s;"></path><path class="fillCls2" d="M83.1009 8.61215C83.1259 8.67601 83.1642 8.73421 83.212 8.78325C83.2603 8.83223 83.3175 8.87105 83.3813 8.89743C83.4447 8.92375 83.513 8.93713 83.5813 8.93663C83.6501 8.93613 83.7179 8.92186 83.7812 8.89465C84.9424 8.40284 86.7634 7.89008 88.8143 8.20402C90.2793 8.42377 91.4305 8.99928 92.1941 9.37603C93.1799 9.86579 94.1067 10.4661 94.957 11.1654C95.0092 11.2106 95.0708 11.2448 95.1364 11.2661C95.2024 11.2874 95.2724 11.2954 95.3413 11.2895C95.4107 11.2837 95.4779 11.2641 95.5395 11.232C95.6006 11.1999 95.6556 11.156 95.6995 11.1026C95.7845 10.9927 95.8244 10.8547 95.8106 10.7166C95.7972 10.5785 95.7311 10.4508 95.6267 10.3597C94.7143 9.60916 93.7213 8.96335 92.6651 8.43421C91.8387 8.02614 90.6036 7.40877 88.9715 7.16808C87.1505 6.88557 85.2145 7.15764 83.373 7.93196C83.2475 7.98716 83.1492 8.08929 83.0981 8.21646C83.047 8.34364 83.0481 8.48569 83.1009 8.61215Z" fill="#FFFFFF" stroke-width="2px" style="animation-duration: 5s;"></path><path class="fillCls4" d="M28.7101 110.783C29.0449 110.783 29.3693 110.773 29.6832 110.742L21.3434 98.1846L19.7109 99.2309L26.9521 110.637C27.5324 110.739 28.1208 110.788 28.7101 110.783Z" fill="#35FFC9" stroke-width="2px" style="animation-duration: 5s;"></path><path class="fillCls1" d="M37.0593 123.801V105.709H37.0175C36.7768 102.59 33.1457 100.11 28.7089 100.11C27.4218 100.11 25.7266 100.435 24.4186 100.927L21.9387 97.1803H21.9596L20.8086 95.3177C20.6755 95.1033 20.4792 94.9361 20.2467 94.8384C20.0141 94.7412 19.757 94.7184 19.511 94.7734H19.5005C18.6621 94.9611 17.9171 95.4393 17.3972 96.1235C17.2481 96.3178 17.1613 96.5527 17.1482 96.7977C17.1352 97.042 17.1964 97.2853 17.324 97.4941L18.4855 99.3672L18.5379 99.3361V99.3567L21.1643 103.49C20.6621 104.348 20.39 105.248 20.39 106.054C20.39 106.205 20.4005 106.355 20.4214 106.504V123.801H20.4318C20.7144 126.899 24.3349 129.347 28.7403 129.347C33.1457 129.347 36.7663 126.899 37.0384 123.801H37.0593ZM35.8768 123.424C35.8768 126.041 32.6749 128.165 28.7403 128.165C24.8058 128.165 21.6038 126.041 21.6038 123.424V109.12C23.0583 110.826 25.7058 111.976 28.7089 111.976C31.7121 111.976 34.4328 110.794 35.8768 109.057V123.424ZM28.7089 101.293C32.6539 101.293 35.8559 103.427 35.8559 106.044C35.8559 108.168 33.7317 109.978 30.8227 110.575L25.0884 101.931C26.0406 101.607 27.4951 101.293 28.7089 101.293ZM21.6038 106.431V106.221H21.5829C21.5738 106.162 21.5703 106.103 21.5724 106.044C21.5854 105.571 21.7109 105.108 21.9387 104.694L25.4755 110.271C23.3304 109.538 21.8026 108.105 21.6038 106.431ZM21.3422 98.1849L29.6821 110.742C29.3682 110.774 29.0438 110.784 28.7089 110.784C28.1197 110.789 27.5312 110.74 26.951 110.637L19.7098 99.2312L21.3422 98.1849Z" fill="#000000" stroke-width="2px" style="animation-duration: 5s;"></path></svg>