<svg width="150" height="150" viewBox="0 0 150 150" fill="none" xmlns="http://www.w3.org/2000/svg" style="width: 600px; height: 600px;"><style>
     .money4-1 {animation:money4 4s 200ms infinite; transform: translate3d(0, -5px, 0);}
     .money4-2 {animation:money4 4s 400ms infinite; transform: translate3d(0, -5px, 0);}
     .money4-3 {animation:money4 4s infinite; transform: translate3d(0, -5px, 0);}
     .money4-4 {animation:money4 4s 600ms infinite; transform: translate3d(0, -5px, 0);}
     @keyframes money4 {
         0%{transform: translate3d(0, -6px, 0);}
         50%{transform: translate3d(0, 4px, 0);}
         100%{transform: translate3d(0, -6px, 0);}
     }
     @media (prefers-reduced-motion: reduce) {
         .money4-1, .money4-2, .money4-3, .money4-4 {
             animation: none;
         }
     }
    </style><path class="fillCls3" d="M21.3166 71.494C21.6094 78.2544 18.4653 81.6079 12.8795 81.6079C7.29378 81.6079 2.76562 77.0796 2.76562 71.494C2.76562 65.9085 7.29378 61.3801 12.8795 61.3801C18.4653 61.3801 23.1531 66.2508 21.3166 71.494Z" fill="#FFEF00" stroke-width="2px" style="animation-duration: 5s;"></path><path class="fillCls4" d="M117.518 105.124C117.875 105.124 118.229 105.053 118.559 104.916C118.888 104.78 119.188 104.579 119.441 104.327C119.693 104.074 119.893 103.775 120.03 103.445C120.167 103.115 120.237 102.762 120.237 102.404V94.3543C120.237 94.0328 120.11 93.7241 119.883 93.4952C119.657 93.2668 119.349 93.1369 119.027 93.1343H109.468C109.144 93.1343 108.834 93.2626 108.605 93.4915C108.376 93.7203 108.248 94.0307 108.248 94.3543V102.404C108.248 103.126 108.534 103.817 109.044 104.327C109.554 104.837 110.246 105.124 110.967 105.124H117.518Z" fill="#35FFC9" stroke-width="2px" style="animation-duration: 5s;"></path><path class="fillCls1" d="M117.518 106.194C118.523 106.194 119.487 105.795 120.198 105.084C120.909 104.374 121.308 103.41 121.308 102.405V94.3545C121.309 94.0543 121.251 93.7567 121.137 93.4788C121.023 93.201 120.855 92.9481 120.644 92.7357C120.432 92.5228 120.18 92.3535 119.903 92.2386C119.625 92.123 119.328 92.064 119.028 92.064H109.468C108.861 92.064 108.278 92.3051 107.848 92.7347C107.419 93.1642 107.178 93.7471 107.178 94.3545V102.405C107.18 103.409 107.581 104.371 108.291 105.081C109.001 105.791 109.963 106.191 110.967 106.194H117.518ZM108.248 102.405V94.3545C108.248 94.0308 108.377 93.7205 108.605 93.4916C108.834 93.2627 109.145 93.1344 109.468 93.1344H119.028C119.35 93.1371 119.657 93.267 119.883 93.4953C120.11 93.7242 120.237 94.033 120.237 94.3545V102.405C120.237 102.762 120.167 103.115 120.03 103.445C119.894 103.775 119.693 104.074 119.441 104.327C119.188 104.58 118.889 104.78 118.559 104.917C118.229 105.053 117.876 105.124 117.518 105.124H110.967C110.246 105.124 109.555 104.837 109.045 104.327C108.535 103.817 108.248 103.126 108.248 102.405Z" fill="#000000" stroke-width="2px" style="animation-duration: 5s;"></path><path class="fillCls1" d="M80.0742 120.773L81.0909 121.351L82.0331 121.876C82.879 122.326 83.778 122.786 84.7202 123.257L85.6837 123.706L87.0645 124.359C88.7663 125.13 90.5006 125.869 92.2242 126.543C92.3435 126.587 92.443 126.671 92.5063 126.78C92.5692 126.891 92.591 127.019 92.5681 127.144C92.5447 127.269 92.4781 127.381 92.3797 127.461C92.2817 127.542 92.1582 127.584 92.0315 127.582C91.9645 127.583 91.8984 127.568 91.8388 127.539C90.0939 126.854 88.3384 126.115 86.6254 125.334L84.7309 124.445L84.6345 124.391H84.6239C82.7502 123.482 81.0377 122.583 79.5281 121.684C76.1756 119.726 73.9092 118.021 71.7288 116.38L71.6499 116.321L71.6456 116.317C71.4194 116.147 67.2855 113.042 64.7559 109.726C64.4344 109.318 64.1512 108.881 63.9101 108.421C63.6519 107.922 63.4374 107.403 63.2681 106.868C63.1718 106.59 63.0861 106.29 63.011 106.001C62.9104 105.511 62.903 105.006 62.9897 104.513C62.9833 104.387 63.0089 104.262 63.0648 104.149C63.1153 104.015 63.2165 103.906 63.3469 103.846C63.4768 103.786 63.6253 103.779 63.7605 103.828C63.8781 103.871 64.2204 104.042 64.0815 104.567V104.588C63.9426 105.091 64.0495 105.691 64.0602 105.765C64.1353 106.033 64.2098 106.29 64.2955 106.547C64.444 107.023 64.634 107.485 64.8629 107.928C65.0737 108.334 65.3244 108.718 65.6124 109.073C68.0702 112.301 72.2457 115.432 72.3022 115.475L72.3025 115.475L72.3991 115.547C74.6543 117.244 76.792 118.852 80.0742 120.773Z" fill="#000000" stroke-width="2px" style="animation-duration: 5s;"></path><path class="fillCls4" d="M123.471 104.577C127.014 103.806 130.043 103.571 133.576 104.513C137.108 105.455 139.977 107.061 142.461 109.619C142.503 109.502 142.547 109.383 142.579 109.266C142.814 108.581 143.017 107.917 143.22 107.264C140.406 104.887 136.809 102.982 133.629 102.243L133.148 102.136C130.493 101.612 127.41 101.676 124.487 102.243C124.22 102.854 123.952 103.453 123.695 104.063L123.471 104.577Z" fill="#35FFC9" stroke-width="2px" style="animation-duration: 5s;"></path><path class="fillCls4" d="M71.1776 97.8765C71.6913 99.054 72.2374 99.878 72.8475 100.381L73.104 100.595C73.4761 100.929 73.8738 101.233 74.2927 101.505C74.4747 101.608 74.6642 101.697 74.8596 101.773C74.6563 101.451 74.421 101.055 74.0782 100.435L73.9499 100.199C73.6821 99.7497 73.3931 99.2467 73.3079 98.6686C73.2696 98.4567 73.2515 98.2416 73.2541 98.0261C72.2694 96.6133 71.1776 95.3501 70.0427 94.3547L69.668 94.0332C69.7079 94.1061 69.7441 94.1812 69.775 94.2584C70.2248 95.4891 70.6746 96.699 71.1776 97.8765Z" fill="#35FFC9" stroke-width="2px" style="animation-duration: 5s;"></path><path class="fillCls4" d="M65.5788 94.1193C65.6241 93.9377 65.7039 93.7669 65.8146 93.6162C66.1356 93.1771 66.81 92.9311 67.3237 92.7917C67.5138 92.7512 67.7081 92.7369 67.9018 92.7491C66.2852 91.7159 64.5488 90.8818 62.7315 90.2659C62.164 90.9078 61.6184 91.5503 61.0723 92.1817C63.0636 92.6208 64.2837 93.1989 65.5788 94.1193Z" fill="#35FFC9" stroke-width="2px" style="animation-duration: 5s;"></path><path class="fillCls4" d="M110.239 70.8049H109.576C105.979 70.8049 102.489 69.8095 99.1924 67.8506C98.5578 68.2807 97.8839 68.6502 97.1797 68.953L97.383 69.1138C100.937 71.415 105.84 72.9028 109.758 72.9028H110.261C114.5 72.7532 119.478 70.9439 122.924 68.2999L123.085 68.1503C122.394 67.8746 121.746 67.503 121.158 67.0474C117.775 69.4135 114.104 70.6767 110.239 70.8049Z" fill="#35FFC9" stroke-width="2px" style="animation-duration: 5s;"></path><path class="fillCls1" d="M112.167 33.22C112.338 32.4064 112.006 31.6356 111.417 31.5179C110.828 31.4002 110.218 31.9568 110.047 32.7811C109.876 33.6053 110.208 34.3653 110.796 34.4831C111.385 34.6008 111.995 34.0442 112.167 33.22Z" fill="#000000" stroke-width="2px" style="animation-duration: 5s;"></path><path class="fillCls1" d="M104.676 31.4119C104.852 30.5891 104.521 29.8205 103.936 29.6952C103.351 29.5697 102.733 30.1351 102.557 30.9577C102.381 31.7805 102.712 32.5491 103.297 32.6744C103.882 32.7999 104.5 32.2346 104.676 31.4119Z" fill="#000000" stroke-width="2px" style="animation-duration: 5s;"></path><path class="fillCls1" d="M110.4 29.0673C110.784 28.994 111.176 28.9689 111.567 28.9923C112.559 29.0534 113.512 29.3949 114.318 29.9772C114.435 30.0573 114.579 30.0888 114.719 30.0648C114.859 30.0408 114.984 29.9633 115.067 29.8487C115.108 29.7912 115.138 29.7261 115.154 29.6572C115.169 29.5882 115.171 29.5169 115.159 29.4472C115.147 29.3776 115.122 29.311 115.084 29.2512C115.046 29.1916 114.997 29.1399 114.939 29.0994C113.967 28.3997 112.816 27.9913 111.62 27.9218C111.144 27.9006 110.666 27.9329 110.197 28.0182C110.058 28.0442 109.935 28.1241 109.854 28.2404C109.775 28.3567 109.743 28.5 109.768 28.6391C109.797 28.7788 109.879 28.9018 109.997 28.9818C110.115 29.0618 110.26 29.0925 110.4 29.0673Z" fill="#000000" stroke-width="2px" style="animation-duration: 5s;"></path><path class="fillCls1" d="M105.733 42.5017C105.844 42.5052 105.955 42.498 106.065 42.4803C106.139 42.4769 106.21 42.4583 106.276 42.4258C106.342 42.3932 106.401 42.3474 106.449 42.2912C106.496 42.235 106.532 42.1695 106.553 42.099C106.574 42.0284 106.58 41.9543 106.571 41.8812C106.562 41.8081 106.539 41.7376 106.502 41.6741C106.464 41.6107 106.414 41.5556 106.354 41.5124C106.295 41.4691 106.227 41.4386 106.155 41.4228C106.083 41.407 106.009 41.4062 105.936 41.4205C105.294 41.4954 104.802 41.2064 104.706 40.8853C104.662 40.712 104.685 40.5288 104.769 40.3715L104.802 40.2858L106.793 33.1458C106.831 33.0081 106.813 32.8608 106.743 32.7364C106.673 32.6119 106.556 32.5205 106.418 32.4821C106.281 32.4438 106.133 32.4618 106.009 32.532C105.884 32.6023 105.793 32.7191 105.754 32.8568L103.774 39.9647C103.595 40.3542 103.564 40.7959 103.688 41.2064C103.935 41.9878 104.769 42.5017 105.733 42.5017Z" fill="#000000" stroke-width="2px" style="animation-duration: 5s;"></path><path class="fillCls1" d="M104.952 46.4837C105.636 46.8691 106.405 47.0788 107.19 47.0939H107.275C108.393 47.0835 109.473 46.6906 110.337 45.9806C110.399 45.9393 110.452 45.8854 110.493 45.8223C110.533 45.7592 110.559 45.6884 110.571 45.6144C110.582 45.5403 110.577 45.4648 110.557 45.3926C110.538 45.3204 110.503 45.2533 110.456 45.1953C110.408 45.1374 110.349 45.0901 110.282 45.0564C110.216 45.0226 110.142 45.0033 110.068 44.9997C109.993 44.996 109.918 45.008 109.848 45.035C109.779 45.062 109.715 45.1034 109.662 45.1563C108.972 45.723 108.104 46.0298 107.211 46.0234C106.6 46.0103 106.001 45.8487 105.466 45.5524C105.405 45.5088 105.334 45.4786 105.26 45.464C105.187 45.4493 105.11 45.4504 105.037 45.4671C104.963 45.484 104.894 45.5161 104.834 45.5615C104.774 45.6068 104.724 45.6644 104.688 45.7304C104.652 45.7964 104.629 45.8693 104.623 45.9444C104.617 46.0195 104.626 46.0952 104.652 46.1663C104.677 46.2374 104.716 46.3024 104.768 46.3571C104.82 46.4118 104.883 46.455 104.952 46.4837Z" fill="#000000" stroke-width="2px" style="animation-duration: 5s;"></path><path class="fillCls1" d="M78.0396 122.679H78.029C77.9582 122.679 77.8884 122.693 77.823 122.72C77.758 122.749 77.6995 122.789 77.6505 122.84C77.6015 122.891 77.5632 122.951 77.5382 123.017C77.5132 123.084 77.5014 123.154 77.5046 123.225C77.5259 124.21 77.5259 125.109 77.494 125.965C77.2795 133.919 76.9478 140.406 76.7339 141.08C76.679 141.206 76.6726 141.348 76.7158 141.479C76.7594 141.609 76.8499 141.719 76.9691 141.787C77.0474 141.819 77.131 141.837 77.2156 141.84C77.3146 141.84 77.4115 141.813 77.4961 141.762C77.5813 141.711 77.6505 141.638 77.6973 141.551C77.783 141.38 77.9433 141.069 78.1897 136.124C78.3287 133.384 78.4569 129.787 78.5645 125.997C78.5964 125.12 78.5964 124.199 78.5751 123.203C78.5719 123.063 78.5144 122.93 78.4144 122.832C78.3143 122.734 78.1796 122.679 78.0396 122.679Z" fill="#000000" stroke-width="2px" style="animation-duration: 5s;"></path><path class="fillCls1" d="M136.722 128.802C136.732 128.733 136.729 128.661 136.712 128.593C136.695 128.525 136.665 128.461 136.623 128.404C136.582 128.347 136.529 128.299 136.469 128.263C136.409 128.226 136.342 128.202 136.272 128.192C136.203 128.182 136.131 128.185 136.063 128.201C135.995 128.218 135.931 128.249 135.874 128.29C135.817 128.332 135.769 128.384 135.733 128.445C135.696 128.505 135.672 128.572 135.662 128.642C134.966 133.18 135.052 138.158 135.919 143.424C135.937 143.551 136 143.666 136.097 143.748C136.193 143.831 136.316 143.876 136.443 143.874H136.529C136.668 143.848 136.792 143.769 136.874 143.653C136.956 143.537 136.99 143.394 136.968 143.254C136.133 138.094 136.047 133.234 136.722 128.802Z" fill="#000000" stroke-width="2px" style="animation-duration: 5s;"></path><path class="fillCls1" d="M145.447 79.7323C143.821 77.0665 141.583 75.3753 139.613 73.8875C136.081 71.2217 132.72 69.9585 130.707 69.2096C128.465 68.3632 126.15 67.7218 123.792 67.2933C123.08 67.0388 122.411 66.6736 121.812 66.2121L121.544 65.9875H121.533C119.243 64.0068 118.44 60.7421 118.665 58.4617C118.675 58.4298 118.697 58.3228 118.772 57.841C118.847 57.3593 119.028 56.2675 119.339 54.373C122.528 53.3558 125.586 51.9654 128.449 50.23C132.913 47.5218 137.119 44.7279 139.613 40.3604C142.322 35.6289 143.317 29.6772 142.354 24.0358C141.53 19.2508 139.292 14.9155 136.038 11.8433C135.492 11.333 134.92 10.8507 134.325 10.3981C127.849 5.4847 118.697 4.73536 111.557 8.53547C111.09 8.78885 110.568 8.92135 110.036 8.92087C108.849 8.91347 107.67 9.12394 106.558 9.54175C102.832 10.9226 101.098 14.241 100.167 16.0288C98.604 19.026 97.9402 22.4944 98.1867 26.348C98.3331 28.6048 98.7611 30.8343 99.4605 32.9849L99.5138 33.1776L99.4818 33.3703C98.9144 36.7315 98.1974 40.9277 97.9402 44.3104C97.887 44.9741 97.8439 45.6699 97.8013 46.355C97.8002 46.391 97.8034 46.427 97.812 46.462C98.0196 47.9075 98.6237 49.2671 99.5569 50.3908C100.263 51.2148 101.152 51.8467 102.457 52.4248C105.187 53.6555 108.484 54.1691 110.208 54.373H110.272C110.402 54.364 110.524 54.3081 110.616 54.216C110.708 54.1234 110.763 54.0009 110.77 53.871C110.778 53.7412 110.739 53.6129 110.659 53.5101C110.579 53.4074 110.464 53.3371 110.336 53.3132C108.666 53.1205 105.498 52.6174 102.897 51.4506C101.73 50.9258 100.97 50.4014 100.37 49.6951C99.962 49.2032 99.6266 48.6549 99.3748 48.0677C99.1332 47.5212 98.9639 46.9454 98.8718 46.355C98.9144 45.6913 98.9575 45.0383 99.0107 44.3853C99.2572 41.0562 99.9636 36.8921 100.542 33.5522C100.67 32.8029 100.788 32.0857 100.906 31.4113C101.173 30.4372 101.526 29.1205 101.965 27.5255L102.297 27.472C103.288 27.395 104.282 27.5951 105.166 28.05C105.241 28.0913 105.326 28.1134 105.412 28.1143C105.512 28.1145 105.611 28.0865 105.696 28.0335C105.781 27.9805 105.85 27.9046 105.894 27.8145C105.955 27.6877 105.964 27.5423 105.92 27.4087C105.876 27.275 105.782 27.1635 105.658 27.0974C104.612 26.5606 103.438 26.32 102.265 26.4015C102.469 25.6629 102.693 24.8601 102.918 24.0144C103.528 21.8092 103.956 20.2785 104.363 19.2508C104.77 18.2232 105.145 17.9021 105.295 17.8914C105.444 17.8807 105.691 18.159 106.076 18.6406C106.377 19.0322 106.698 19.4074 107.039 19.7647C108.645 21.4239 110.39 22.0448 113.89 23.2865C115.484 23.8559 117.11 24.3278 118.761 24.6995C119.55 24.8745 120.241 25.35 120.687 26.0253C121.132 26.7005 121.298 27.5227 121.148 28.3177L119.874 35.2007C119.832 35.4053 119.86 35.618 119.954 35.8047C120.048 35.9914 120.201 36.1412 120.39 36.2301C120.579 36.319 120.792 36.3418 120.996 36.2949C121.199 36.248 121.381 36.1341 121.512 35.9715C121.608 35.8644 121.726 35.7039 121.865 35.5112C122.004 35.3185 122.582 34.5263 122.786 34.3765C123.289 34.0126 124.242 34.0233 124.723 34.3872C125.015 34.6325 125.236 34.95 125.365 35.3078C125.665 36.0678 125.719 36.9991 125.505 38.0161C125.226 39.3648 124.755 40.9705 123.642 41.4094C122.989 41.6556 122.336 41.5058 121.887 41.3345C121.759 41.2869 121.623 41.2676 121.487 41.2778C121.351 41.288 121.219 41.3275 121.1 41.3937C120.981 41.4598 120.878 41.551 120.797 41.6609C120.717 41.7708 120.661 41.8968 120.634 42.0303L118.354 53.5485C118.333 53.6326 118.333 53.7209 118.354 53.8056C118.001 55.9572 117.808 57.0809 117.712 57.659C117.616 58.2371 117.605 58.3228 117.605 58.3547C117.358 60.7208 118.14 64.0712 120.335 66.3191C117.188 68.4601 113.783 69.6163 110.208 69.7339C106.632 69.8515 103.325 68.9844 100.102 67.1543C100.494 66.8264 100.856 66.4644 101.184 66.0727C103.528 63.3217 103.742 56.9632 103.839 54.2442V53.9019C103.841 53.7587 103.788 53.6203 103.69 53.516C103.592 53.4122 103.457 53.3504 103.314 53.3451C103.244 53.3435 103.174 53.3563 103.108 53.3818C103.043 53.4074 102.983 53.4457 102.932 53.4942C102.882 53.5431 102.841 53.6012 102.813 53.6656C102.785 53.73 102.769 53.7992 102.768 53.8694V54.2123C102.683 56.5885 102.469 62.915 100.37 65.3769C98.5077 67.5717 95.9707 68.3318 94.3008 68.8348C93.5008 69.0813 92.6741 69.2319 91.8389 69.2841C91.8064 69.4023 91.7638 69.5199 91.7319 69.6375C91.6994 69.7552 91.5711 70.1406 91.4961 70.387H91.6675C92.6097 70.312 93.348 70.2476 94.6005 69.8728C95.4772 69.6232 96.3385 69.323 97.1801 68.9738C97.8844 68.6709 98.5583 68.3014 99.1928 67.8713C102.49 69.8302 105.98 70.8257 109.576 70.8257H110.24C114.104 70.6974 117.776 69.4342 121.159 67.0793C121.746 67.5349 122.395 67.9059 123.086 68.1817L123.471 68.3318L123.557 68.3531C125.867 68.7709 128.136 69.3975 130.332 70.2263C132.291 70.9651 135.557 72.1852 138.971 74.7653C140.962 76.2638 143.017 77.816 144.527 80.3098C147.139 84.6024 146.561 89.2378 145.673 96.2387C145.426 98.2296 144.784 102.147 143.221 107.286C143.017 107.939 142.814 108.602 142.579 109.288C142.547 109.405 142.504 109.523 142.461 109.641C139.977 107.082 137.205 105.488 133.576 104.535C129.947 103.582 127.014 103.828 123.471 104.599L123.696 104.085C123.953 103.475 124.22 102.876 124.488 102.266C125.472 100.081 126.532 97.9192 127.646 95.7996C127.688 95.7373 127.717 95.6665 127.731 95.5919C127.744 95.5174 127.742 95.4413 127.724 95.3678C127.705 95.2944 127.671 95.2257 127.625 95.1661C127.578 95.107 127.519 95.058 127.452 95.0229C127.385 94.9878 127.311 94.9676 127.236 94.9633C127.16 94.9585 127.085 94.9702 127.014 94.9968C126.943 95.024 126.879 95.0655 126.826 95.1187C126.772 95.1725 126.731 95.2364 126.704 95.3072C125.269 98.0262 123.921 100.831 122.711 103.657C121.309 106.922 120.217 109.78 119.275 112.659C119.231 112.794 119.242 112.941 119.307 113.068C119.371 113.194 119.482 113.29 119.617 113.334C119.672 113.355 119.73 113.366 119.788 113.366C119.902 113.366 120.011 113.33 120.102 113.262C120.193 113.194 120.259 113.1 120.291 112.992C121.062 110.669 121.919 108.346 122.968 105.819C126.768 104.931 129.722 104.61 133.309 105.562C136.895 106.515 139.635 108.132 142.076 110.776C141.271 113.042 140.338 115.262 139.282 117.423C138.693 118.686 138.125 119.885 137.58 121.33C137.262 122.097 136.904 122.848 136.509 123.578C134.989 126.415 132.184 130.247 127.506 132.345C123.503 134.133 119.81 133.93 116.545 133.747C115.399 133.684 114.136 133.469 112.595 133.095C112.456 133.062 112.31 133.085 112.188 133.159C112.066 133.234 111.977 133.352 111.942 133.491C111.91 133.628 111.934 133.773 112.008 133.893C112.082 134.014 112.201 134.1 112.338 134.133C113.954 134.529 115.271 134.743 116.481 134.807C117.691 134.872 118.622 134.925 119.746 134.925C122.283 134.925 125.012 134.625 127.935 133.319C132.902 131.103 135.856 127.068 137.451 124.081C137.863 123.32 138.235 122.538 138.565 121.737C138.575 121.737 138.575 121.737 138.575 121.726C139.11 120.324 139.667 119.136 140.256 117.884C141.209 115.86 142.3 113.558 143.595 109.641C145.661 103.432 146.454 98.6687 146.743 96.3883C147.653 89.1201 148.252 84.3458 145.447 79.7323ZM137.023 17.8807C137.152 17.8215 137.3 17.8154 137.434 17.8633C137.568 17.9113 137.678 18.0097 137.74 18.1376C139.121 21.0492 139.624 24.1429 139.421 28.4675C139.415 28.6057 139.357 28.7365 139.257 28.8322C139.157 28.928 139.024 28.9815 138.886 28.9814H138.864C138.794 28.9786 138.725 28.962 138.661 28.9326C138.597 28.9031 138.54 28.8613 138.492 28.8096C138.444 28.7578 138.407 28.6973 138.383 28.6312C138.359 28.5652 138.347 28.495 138.35 28.4247C138.543 24.2713 138.072 21.3382 136.777 18.5978C136.746 18.5346 136.728 18.4659 136.723 18.3956C136.719 18.3253 136.728 18.2548 136.751 18.1881C136.774 18.1215 136.81 18.0601 136.856 18.0073C136.903 17.9545 136.96 17.9115 137.023 17.8807ZM132.42 12.8066C132.498 12.6893 132.62 12.6078 132.759 12.5797C132.897 12.5516 133.041 12.5793 133.158 12.6568C134.199 13.3277 135.07 14.2286 135.706 15.2901C135.777 15.414 135.797 15.5606 135.76 15.6987C135.725 15.8368 135.636 15.9552 135.513 16.0288C135.434 16.0795 135.34 16.1055 135.246 16.1037C135.152 16.1031 135.061 16.0781 134.98 16.0312C134.9 15.9842 134.833 15.917 134.786 15.8361C134.225 14.9181 133.469 14.1358 132.57 13.5453C132.453 13.4668 132.371 13.3452 132.343 13.2068C132.315 13.0685 132.342 12.9246 132.42 12.8066Z" fill="#000000" stroke-width="2px" style="animation-duration: 5s;"></path><path class="fillCls1" d="M77.7195 73.5873C75.0005 75.2358 73.3093 77.0239 72.1851 78.2013C65.923 84.7738 57.7339 94.3761 53.4201 99.5033C53.3738 99.5571 53.3387 99.6199 53.3168 99.6875C53.295 99.7551 53.287 99.8259 53.2929 99.8967C53.2987 99.9675 53.319 100.036 53.3514 100.1C53.3844 100.162 53.4297 100.218 53.484 100.263C53.5936 100.351 53.732 100.393 53.8715 100.381C54.011 100.369 54.1408 100.304 54.2335 100.199C55.8176 98.3046 57.9266 95.8208 60.2709 93.1023L60.3353 93.1236C62.8723 93.616 64.0605 94.2686 65.709 95.5318C65.7197 95.5536 65.7197 95.5749 65.7303 95.5962C65.7771 95.8 65.8378 96.0002 65.9124 96.1956C65.8889 96.1652 65.8597 96.1397 65.8267 96.1205C65.7095 96.0407 65.5658 96.0092 65.4258 96.0332C65.2858 96.0572 65.1607 96.1343 65.0772 96.2493C64.8967 96.5181 64.7525 96.8093 64.6492 97.1164C64.4906 97.6653 64.4538 98.2428 64.5422 98.8076V98.8289C64.5848 99.0541 64.6492 99.2787 64.7024 99.5033C64.6641 99.4554 64.6167 99.4155 64.5635 99.3857C64.5028 99.35 64.4352 99.3266 64.3655 99.3176C64.2952 99.3085 64.2244 99.3133 64.1563 99.3325C64.0881 99.3516 64.0248 99.3841 63.97 99.4283C63.9146 99.4719 63.8688 99.5268 63.8353 99.589C63.6979 99.8259 63.5973 100.082 63.5356 100.349C63.4275 100.831 63.4201 101.331 63.5143 101.816V101.837C63.5713 102.08 63.6357 102.326 63.707 102.576C63.8411 103.03 64.0093 103.474 64.21 103.903C64.3953 104.299 64.6141 104.678 64.8632 105.038C65.3236 105.691 65.8905 106.558 66.565 107.553L66.747 107.832C66.7981 107.904 66.8652 107.963 66.9434 108.004C67.0217 108.045 67.1085 108.066 67.1968 108.067C67.3038 108.065 67.4082 108.031 67.4965 107.971C67.612 107.89 67.6913 107.768 67.7174 107.63C67.7435 107.492 67.7142 107.349 67.6354 107.232L67.4539 106.954C66.7795 105.958 66.2014 105.091 65.741 104.428C65.528 104.117 65.3385 103.792 65.1735 103.454C64.9994 103.068 64.8531 102.671 64.7349 102.265C64.6705 102.051 64.6061 101.826 64.5635 101.612C64.5204 101.398 64.4671 101.024 64.5741 100.606C64.6156 100.434 64.6806 100.268 64.7668 100.113C64.7993 100.062 64.8174 100.003 64.8206 99.9425C64.9547 100.402 65.1267 100.849 65.3343 101.28C65.5552 101.754 65.8203 102.205 66.1263 102.629L68.2029 105.658L68.4281 105.991C68.476 106.063 68.5409 106.123 68.6176 106.164C68.6942 106.205 68.7799 106.226 68.8667 106.226C68.9742 106.227 69.0796 106.193 69.1664 106.13C69.2249 106.091 69.275 106.041 69.3133 105.983C69.3522 105.924 69.3788 105.859 69.3921 105.789C69.4048 105.721 69.4038 105.65 69.3889 105.582C69.374 105.513 69.3458 105.448 69.3053 105.391L69.0807 105.059C68.2673 103.85 67.5609 102.811 66.9935 102.008C66.7295 101.636 66.4968 101.242 66.2978 100.831C66.0955 100.372 65.9241 99.8994 65.7835 99.4176C65.7197 99.1611 65.6553 98.8933 65.602 98.6362C65.5371 98.2402 65.5594 97.8351 65.6659 97.4481C65.7399 97.2399 65.8405 97.0419 65.9656 96.8593C66.03 96.7571 66.0598 96.6374 66.0513 96.5171C66.0736 96.5575 66.0917 96.6006 66.1051 96.6454C66.212 96.8593 66.319 97.1058 66.4686 97.48C66.6187 97.8548 66.6507 97.9511 66.7151 98.1438C66.7795 98.3365 66.8221 98.4541 66.9184 98.7325C67.2123 99.5278 67.5551 100.303 67.9463 101.056C68.567 102.244 69.5198 103.4 70.783 104.47C70.8362 104.516 70.898 104.551 70.9651 104.573C71.0316 104.594 71.1024 104.603 71.1721 104.597C71.2424 104.592 71.3105 104.573 71.3733 104.541C71.4361 104.509 71.492 104.465 71.5373 104.411C71.5831 104.358 71.6177 104.296 71.6395 104.229C71.6613 104.163 71.6698 104.092 71.6645 104.022C71.6587 103.952 71.6395 103.884 71.6075 103.821C71.5761 103.758 71.532 103.703 71.4787 103.657C70.3438 102.683 69.4448 101.612 68.888 100.553C68.5207 99.8424 68.1986 99.1094 67.9245 98.3578C67.8281 98.1012 67.7749 97.9511 67.7318 97.8015C67.6892 97.6514 67.6035 97.4268 67.4646 97.084C67.3251 96.7417 67.1862 96.4095 67.0792 96.1956C66.944 95.9225 66.8402 95.6356 66.7683 95.3391C66.6294 94.7828 66.5437 94.4293 66.6725 94.2473C66.8008 94.0652 67.1005 93.9582 67.5929 93.83C67.6951 93.8071 67.801 93.8081 67.9032 93.8321C68.0049 93.856 68.1002 93.9029 68.1816 93.9689L68.3424 94.0764C68.5303 94.2223 68.6777 94.4139 68.7703 94.6327C69.2201 95.8746 69.6801 97.0946 70.1943 98.2939C70.7079 99.4927 71.425 100.584 72.1638 101.206L72.4097 101.42C72.8234 101.776 73.2598 102.105 73.716 102.404C74.0344 102.581 74.3633 102.739 74.7008 102.876C75.0431 103.025 75.5573 103.25 75.6643 103.325C75.7526 103.386 75.8565 103.42 75.964 103.421C76.0523 103.421 76.1391 103.399 76.2168 103.358C76.2951 103.317 76.3627 103.258 76.4133 103.186C76.4537 103.125 76.4814 103.057 76.4942 102.985C76.5069 102.913 76.5048 102.839 76.4883 102.769C76.5149 102.657 76.5037 102.541 76.4564 102.436C76.2759 102.065 76.0763 101.704 75.857 101.355C75.6536 101.024 75.3965 100.606 75.0111 99.91C74.9686 99.8296 74.9222 99.7509 74.8722 99.6747C74.6577 99.2787 74.4224 98.8827 74.358 98.4973C74.2941 98.1119 74.2191 97.3517 74.7221 96.977C75.2251 96.6022 75.5999 96.7736 75.7388 96.8056C76.3281 96.945 76.788 97.6839 77.1521 98.2726L77.2059 98.369C77.3554 98.6149 77.4944 98.8614 77.6445 99.1392C77.9442 99.7067 78.2652 100.295 78.7363 100.798C79.0881 101.168 79.4597 101.519 79.8498 101.848L80.0851 102.062C80.5669 102.576 81.1018 103.443 81.6693 104.663C81.7156 104.754 81.7859 104.83 81.8726 104.883C81.9599 104.936 82.06 104.964 82.1617 104.963C82.2389 104.964 82.3155 104.949 82.3868 104.92C82.4507 104.89 82.5087 104.848 82.5566 104.796C82.604 104.743 82.6413 104.682 82.6652 104.615C82.6887 104.549 82.6993 104.478 82.6956 104.407C82.6919 104.336 82.6743 104.266 82.6434 104.203C82.0227 102.876 81.4127 101.912 80.8453 101.323L80.5562 101.056C80.1895 100.75 79.8424 100.421 79.5177 100.071C79.1323 99.6747 78.8651 99.1717 78.5867 98.6468C78.4366 98.369 78.287 98.0906 78.1156 97.8122L78.0618 97.7265C77.6125 96.9983 77.002 96.0135 75.9853 95.7676C75.6643 95.6925 74.8291 95.5749 74.0796 96.1317C73.534 96.5277 73.2556 97.2128 73.2556 98.0368C73.2529 98.2524 73.271 98.4675 73.3093 98.6793C73.3945 99.2574 73.6836 99.7604 73.9513 100.21L74.0796 100.446C74.4224 101.066 74.6577 101.462 74.861 101.784C74.6657 101.708 74.4762 101.619 74.2941 101.516C73.8752 101.243 73.4776 100.94 73.1055 100.606L72.8489 100.392C72.2389 99.8887 71.6927 99.0647 71.179 97.8872C70.6648 96.7098 70.2262 95.4998 69.7764 94.2686C69.7455 94.1919 69.7093 94.1169 69.6694 94.044C69.4256 93.5963 69.0573 93.2285 68.6096 92.9841H68.5989C68.3844 92.8649 68.1475 92.792 67.9032 92.7701C67.7094 92.7579 67.5151 92.7723 67.3251 92.8133C66.8114 92.9522 66.137 93.1986 65.816 93.6373C65.7053 93.7879 65.6254 93.9588 65.5802 94.1403C64.2851 93.2199 63.065 92.6418 61.0737 92.2027C61.6198 91.5714 62.1654 90.9289 62.7329 90.2869C66.137 86.3797 69.7982 82.2799 72.9559 78.9615C74.0477 77.8159 75.6749 76.103 78.2758 74.5294C81.2307 72.7313 84.4421 71.7141 86.8183 71.1578C86.9466 70.7399 87.043 70.3545 87.1393 69.991C84.6348 70.5153 81.038 71.5751 77.7195 73.5873Z" fill="#000000" stroke-width="2px" style="animation-duration: 5s;"></path><path class="fillCls1" d="M89.4942 69.5415L88.3055 69.7342C88.2204 70.0983 88.1129 70.473 88.0059 70.8797C88.6697 70.7509 89.2264 70.6545 89.6438 70.6013L90.3182 70.505C90.4465 70.1409 90.5753 69.7661 90.693 69.3914C90.3395 69.4238 89.9541 69.4771 89.4942 69.5415Z" fill="#000000" stroke-width="2px" style="animation-duration: 5s;"></path><path class="fillCls1" d="M124.466 118.697C124.404 118.696 124.343 118.685 124.284 118.665C120.286 117.256 116.199 116.115 112.049 115.25C108.861 114.58 106.538 114.27 104.075 113.94L104.021 113.933L103.949 113.923C101.99 113.658 99.9411 113.381 97.2444 112.906C95.2961 112.563 93.3266 112.167 91.3677 111.739L90.3185 111.503L87.4712 110.818L86.422 110.583L86.1761 110.539C84.6558 110.283 83.3607 110.004 82.8896 109.266C82.6862 108.955 82.6325 108.602 82.5899 108.313L82.5255 107.649V107.585C82.5132 107.443 82.5569 107.303 82.6468 107.193C82.7368 107.083 82.8661 107.012 83.0072 106.996C83.0775 106.989 83.1488 106.996 83.2164 107.016C83.2845 107.036 83.3473 107.07 83.4022 107.114C83.457 107.159 83.5022 107.215 83.5353 107.277C83.5688 107.339 83.5895 107.408 83.5959 107.478V107.553L83.6604 108.174C83.6694 108.353 83.7168 108.528 83.7993 108.687C84.0564 109.095 85.6193 109.351 86.3687 109.48C86.7323 109.544 87.0426 109.598 87.2678 109.662C88.5949 109.994 89.9331 110.315 91.25 110.614C93.3053 111.075 95.3818 111.492 97.4371 111.846C100.156 112.327 102.201 112.606 104.181 112.873C106.675 113.205 109.03 113.526 112.284 114.201C116.478 115.078 120.608 116.234 124.648 117.658C124.766 117.701 124.866 117.784 124.929 117.893C124.992 118.002 125.014 118.13 124.993 118.254C124.971 118.378 124.906 118.49 124.81 118.571C124.714 118.652 124.592 118.697 124.466 118.697Z" fill="#000000" stroke-width="2px" style="animation-duration: 5s;"></path><path class="fillCls1" d="M12.8699 81.9162C15.3916 81.9194 17.8277 81.0022 19.7209 79.3361C19.7143 79.7215 19.7538 80.1058 19.8386 80.4816C19.9136 80.7494 19.9671 81.0171 20.0206 81.2737C20.117 81.7128 20.2133 82.1302 20.331 82.5049C20.3672 82.6119 20.4365 82.7051 20.5288 82.7705C20.6211 82.836 20.7318 82.8701 20.8449 82.869C20.8993 82.8722 20.9538 82.8648 21.0055 82.8472C21.073 82.827 21.1357 82.7929 21.1899 82.7477C21.2439 82.7019 21.2883 82.646 21.3203 82.5832C21.3523 82.5204 21.3713 82.4512 21.376 82.3809C21.3807 82.3106 21.3712 82.2398 21.348 82.1733C21.2364 81.8033 21.1436 81.4281 21.0697 81.049C21.059 81.0171 21.059 80.974 21.0483 80.9421C21.0376 80.9101 20.984 80.6424 20.9412 80.4816L20.877 80.2139C20.7485 79.6789 20.7807 78.8868 20.8663 78.1586C20.8663 78.1559 20.8674 78.1533 20.8694 78.1512C20.8714 78.149 20.8741 78.148 20.877 78.148C20.8969 77.9499 20.9291 77.7535 20.9733 77.5592C20.9937 77.0828 21.0618 76.6096 21.1767 76.1465H21.1553C21.3694 75.076 21.7013 73.181 21.7547 72.7099C21.7991 72.3016 21.8169 71.8901 21.8083 71.4792C21.8083 71.0831 21.8083 70.6014 21.8511 69.8093C21.8496 69.7162 21.8531 69.6235 21.8618 69.5309C21.8725 69.0811 21.8832 68.6212 22.0331 68.2677C22.1829 67.9143 22.5148 67.2079 23.1357 67.1547C23.7566 67.1009 23.992 67.4432 24.0991 67.5395C24.5273 67.968 24.5273 68.8352 24.5273 69.5309V69.6379C24.5273 69.9376 24.5166 70.2373 24.5166 70.5263C24.4847 71.172 24.4953 71.8193 24.5487 72.4639C24.6129 73.0953 24.8805 74.0375 25.0732 74.4016C25.33 74.9945 25.5516 75.6019 25.7369 76.221L25.9617 76.9066C26.4755 78.4801 26.3684 79.6145 26.2614 80.7062C26.1758 81.6165 26.0795 82.5475 26.3577 83.6504C26.5076 84.2711 26.8716 85.7376 32.2453 89.7731C34.0116 91.1007 35.082 91.7751 37.4049 93.2523L39.8777 94.8151C41.7189 95.9926 44.2345 97.5986 47.1462 99.5468L49.3513 101.045C51.0318 102.201 52.7235 103.379 54.3609 104.567C54.4525 104.629 54.5605 104.663 54.6718 104.663C54.7575 104.665 54.8426 104.645 54.9193 104.606C54.9954 104.567 55.0614 104.509 55.1104 104.439C55.1514 104.382 55.1801 104.318 55.1961 104.25C55.2115 104.182 55.2137 104.111 55.2014 104.042C55.1897 103.974 55.1642 103.908 55.1264 103.849C55.0886 103.79 55.0396 103.74 54.9821 103.7C53.3442 102.512 51.653 101.324 49.9614 100.157L47.7456 98.6584C44.8233 96.7102 42.297 95.0935 40.4451 93.9161L37.983 92.3426C35.6708 90.8867 34.6218 90.2229 32.8876 88.9171C27.8243 85.1063 27.4925 83.8107 27.3961 83.3827C27.1606 82.473 27.2355 81.7022 27.3212 80.8138C27.4389 79.6682 27.5674 78.3619 26.9786 76.5638C26.893 76.3141 26.8181 76.089 26.7538 75.8894C26.4755 75.0547 26.3149 74.5511 26.0474 73.9518V73.9305C26.0366 73.9198 26.0366 73.8985 26.0259 73.8879C26.0152 73.8767 25.6834 72.9026 25.6192 72.3463C25.5744 71.748 25.5672 71.147 25.5977 70.5476C25.5977 70.2479 25.6085 69.9376 25.6085 69.6273V69.5203C25.6085 68.6744 25.6085 67.5182 24.8698 66.7799C24.6236 66.5335 23.9813 65.9985 23.05 66.073C22.6613 66.1199 22.2938 66.2758 21.9903 66.5228C21.11 64.9158 19.82 63.5701 18.2514 62.6231C16.6828 61.6756 14.8914 61.1603 13.0592 61.1295C11.227 61.098 9.41925 61.5526 7.8195 62.4464C6.21974 63.3401 4.88498 64.6411 3.95077 66.2173C3.01657 67.794 2.51614 69.5895 2.50038 71.4217C2.48463 73.2544 2.95407 75.0584 3.86102 76.6506C4.76803 78.2427 6.08017 79.5666 7.66433 80.4875C9.24848 81.4089 11.0482 81.8944 12.8807 81.8949L12.8699 81.9162ZM12.8699 62.209C14.6164 62.2122 16.327 62.704 17.8083 63.6292C19.2896 64.5543 20.4824 65.8755 21.2517 67.4432C21.1753 67.5784 21.1074 67.7179 21.0483 67.8611C20.8235 68.4067 20.8021 68.9954 20.7914 69.5096C20.7824 69.5985 20.7789 69.6879 20.7807 69.7768C20.7378 70.5801 20.7378 71.0831 20.7378 71.4792C20.7455 71.8544 20.7313 72.2297 20.695 72.6029C20.6308 73.1064 20.224 75.4507 20.0206 76.3173V76.3711C19.9992 76.5425 19.9671 76.7458 19.935 76.9918C19.9029 77.2382 19.8707 77.4629 19.8386 77.7093C18.806 78.8708 17.499 79.7555 16.0368 80.2831C14.5746 80.81 13.0037 80.9628 11.4673 80.7275C9.93085 80.4922 8.47781 79.8758 7.24061 78.9347C6.00336 77.9941 5.0213 76.7586 4.38396 75.3405C3.74663 73.923 3.47419 72.3687 3.59162 70.8186C3.709 69.2685 4.21245 67.7727 5.05606 66.4675C5.89972 65.1617 7.05664 64.088 8.42149 63.3444C9.78628 62.6008 11.3156 62.21 12.8699 62.209Z" fill="#000000" stroke-width="2px" style="animation-duration: 5s;"></path><path class="fillCls1" d="M12.3344 77.1628V78.0086C12.3344 78.1507 12.3907 78.2865 12.4911 78.3871C12.5915 78.4872 12.7276 78.5436 12.8696 78.5436C13.0115 78.5436 13.1477 78.4872 13.2481 78.3871C13.3484 78.2865 13.4048 78.1507 13.4048 78.0086V77.2059C14.7215 77.1202 15.7384 76.5847 16.2523 75.675C16.9267 74.4868 16.6376 72.7313 15.61 71.7678C14.8286 71.0396 13.9401 71.0508 13.1586 71.0721C12.3772 71.0934 11.9169 71.0827 11.4245 70.6654C10.6216 69.9803 10.2363 68.3211 10.9534 67.4321C11.2639 67.0579 11.7884 66.8114 12.3879 66.747C13.2335 66.6725 14.122 66.9722 14.8393 67.5716C14.9485 67.6626 15.0894 67.7063 15.231 67.693C15.3725 67.6802 15.503 67.611 15.5939 67.5019C15.6848 67.3927 15.7285 67.2517 15.7154 67.1101C15.7024 66.9685 15.6336 66.8381 15.5243 66.747C14.8605 66.1785 14.0463 65.8144 13.18 65.6984V64.8738C13.18 64.7322 13.1236 64.596 13.0233 64.4954C12.9229 64.3953 12.7867 64.3389 12.6448 64.3389C12.5037 64.3415 12.3691 64.3985 12.2694 64.4986C12.1696 64.5981 12.1123 64.7328 12.1096 64.8738V65.709C11.338 65.7974 10.6276 66.1716 10.1185 66.7582C8.99448 68.1603 9.51902 70.4509 10.7393 71.4787C11.5315 72.1638 12.4093 72.1532 13.18 72.1425C13.9508 72.1319 14.4325 72.1425 14.8714 72.5492C15.4815 73.1167 15.8027 74.2941 15.3209 75.1506C14.8393 76.0066 13.4583 76.1673 12.9017 76.1461C11.2853 76.1029 10.2577 74.8185 10.065 74.5507C9.97814 74.4395 9.85156 74.3665 9.71188 74.3463C9.57215 74.3266 9.43018 74.3612 9.31563 74.4437C9.25941 74.4863 9.21204 74.539 9.17621 74.5992C9.14044 74.6598 9.11686 74.7269 9.10696 74.7961C9.09701 74.8658 9.10084 74.9366 9.1183 75.0048C9.13576 75.0729 9.16642 75.1368 9.20858 75.1932C9.51902 75.6105 10.5895 76.895 12.3344 77.1628Z" fill="#000000" stroke-width="2px" style="animation-duration: 5s;"></path><path class="fillCls1" d="M8.74916 81.8302C8.70769 81.7732 8.65542 81.7253 8.59532 81.6886C8.53523 81.6519 8.46847 81.6269 8.3989 81.6162C8.32933 81.605 8.25826 81.6082 8.18981 81.6247C8.12135 81.6412 8.05678 81.671 7.99988 81.7126C7.94292 81.7541 7.8947 81.8062 7.85797 81.8664C7.82124 81.9265 7.79675 81.9931 7.78578 82.0628C7.77487 82.1325 7.77775 82.2033 7.79425 82.272C7.8108 82.3401 7.84061 82.4051 7.88213 82.462C9.2202 84.3028 12.2924 86.9899 14.3156 88.0816C14.395 88.1232 14.483 88.145 14.5725 88.1461C14.669 88.1477 14.7641 88.1221 14.8472 88.0731C14.9303 88.0242 14.9982 87.9528 15.0435 87.8677C15.1092 87.742 15.1235 87.5962 15.0836 87.4604C15.0436 87.3247 14.9525 87.2097 14.8294 87.14C12.9454 86.1227 9.99093 83.5432 8.74916 81.8302Z" fill="#000000" stroke-width="2px" style="animation-duration: 5s;"></path><path class="fillCls1" d="M43.8926 117.915L43.6571 117.754C43.5024 117.673 43.3586 117.572 43.2289 117.455C43.1976 117.414 43.1573 117.381 43.1111 117.358C41.9675 116.724 40.8821 115.99 39.8676 115.164H39.8569C39.6369 115.002 39.4082 114.852 39.1718 114.714C38.9684 114.575 38.7757 114.458 38.583 114.308C32.5778 109.491 25.8017 101.933 17.8481 91.1963C17.806 91.1398 17.7532 91.0925 17.6927 91.0568C17.6322 91.0211 17.5653 90.9977 17.4957 90.9876C17.4261 90.9775 17.3552 90.9817 17.2871 90.9988C17.2191 91.0163 17.1551 91.0472 17.0989 91.0893C17.0426 91.1313 16.9952 91.184 16.9595 91.2447C16.9236 91.3054 16.9001 91.3719 16.8901 91.4416C16.8802 91.5114 16.8841 91.5822 16.9015 91.6503C16.9189 91.7185 16.9496 91.7823 16.9918 91.8388C24.9989 102.639 31.8391 110.272 37.9193 115.143H37.93C38.15 115.305 38.3788 115.455 38.6152 115.592C38.8186 115.732 39.0112 115.849 39.2039 115.999C40.2505 116.841 41.3639 117.596 42.533 118.258C42.7046 118.404 42.8871 118.536 43.079 118.654C43.1587 118.696 43.234 118.747 43.3038 118.803H43.3252C46.0549 120.441 48.8058 121.265 51.5035 121.265C51.8032 121.265 52.1136 121.255 52.4133 121.233C54.0299 121.137 55.7748 120.72 57.9264 119.917H57.937C61.1054 118.6 63.3645 117.251 65.259 115.539C65.3441 115.44 65.3905 115.315 65.3894 115.184C65.3883 115.054 65.3399 114.929 65.2537 114.832C65.1669 114.736 65.0482 114.673 64.9194 114.657C64.79 114.642 64.6596 114.673 64.5526 114.747C62.7433 116.363 60.581 117.658 57.541 118.921C55.4964 119.692 53.8478 120.088 52.3494 120.174C49.5659 120.377 46.7293 119.617 43.8926 117.915Z" fill="#000000" stroke-width="2px" style="animation-duration: 5s;"></path><path class="fillCls2" d="M132.569 13.5457C133.468 14.1362 134.225 14.9186 134.785 15.8365C134.832 15.9174 134.899 15.9847 134.98 16.0316C135.06 16.0785 135.152 16.1036 135.246 16.1041C135.34 16.106 135.433 16.0799 135.513 16.0292C135.635 15.9557 135.724 15.8372 135.76 15.6992C135.796 15.5611 135.776 15.4145 135.706 15.2906C135.07 14.2291 134.198 13.3281 133.158 12.6572C133.1 12.6105 133.033 12.5764 132.961 12.5571C132.889 12.5378 132.814 12.5337 132.74 12.5451C132.667 12.5566 132.596 12.5832 132.534 12.6234C132.471 12.6635 132.418 12.7163 132.376 12.7784C132.335 12.8405 132.307 12.9105 132.295 12.9839C132.282 13.0573 132.285 13.1325 132.303 13.2047C132.322 13.2769 132.355 13.3446 132.401 13.4033C132.446 13.462 132.504 13.5105 132.569 13.5457Z" fill="#FFFFFF" stroke-width="2px" style="animation-duration: 5s;"></path><path class="fillCls2" d="M138.349 28.4247C138.346 28.4949 138.357 28.5651 138.381 28.6312C138.406 28.6972 138.443 28.7578 138.491 28.8095C138.538 28.8612 138.596 28.903 138.66 28.9325C138.724 28.9619 138.793 28.9785 138.863 28.9813H138.884C139.023 28.9814 139.156 28.928 139.255 28.8322C139.356 28.7364 139.414 28.6057 139.42 28.4675C139.623 24.1428 139.12 21.0492 137.739 18.1375C137.677 18.0096 137.566 17.9113 137.433 17.8633C137.299 17.8153 137.151 17.8215 137.022 17.8806C136.959 17.9114 136.902 17.9544 136.855 18.0072C136.808 18.06 136.773 18.1214 136.75 18.1881C136.727 18.2547 136.717 18.3252 136.722 18.3955C136.726 18.4658 136.745 18.5345 136.775 18.5978C138.071 21.3382 138.542 24.2713 138.349 28.4247Z" fill="#FFFFFF" stroke-width="2px" style="animation-duration: 5s;"></path><g class="money4-4" style="animation-duration: 5s;"><path class="fillCls5" d="M18.442 45.7661C24.0278 45.7661 28.5559 41.238 28.5559 35.6522C28.5559 30.0665 24.0278 25.5383 18.442 25.5383C12.8563 25.5383 8.32812 30.0665 8.32812 35.6522C8.32812 41.238 12.8563 45.7661 18.442 45.7661Z" fill="#5CE2FF" stroke-width="2px"></path><path class="fillCls1" d="M15.5489 45.6303C17.6433 46.2414 19.8768 46.1781 21.9331 45.4492C23.9895 44.7203 25.7643 43.363 27.0062 41.5693C28.2482 39.7756 28.8943 37.6366 28.8529 35.4553C28.8116 33.274 28.085 31.1611 26.776 29.4157C25.4669 27.6704 23.6419 26.3812 21.5595 25.7308C19.477 25.0803 17.2427 25.1016 15.173 25.7917C13.1033 26.4817 11.3033 27.8055 10.0278 29.5755C8.75229 31.3455 8.06609 33.4719 8.06641 35.6536C8.06843 37.9017 8.79849 40.0887 10.1474 41.8872C11.4962 43.6856 13.3913 44.9989 15.5489 45.6303ZM18.4606 26.3299C20.3047 26.3299 22.1073 26.8767 23.6406 27.9012C25.1739 28.9257 26.3689 30.3819 27.0746 32.0855C27.7803 33.7892 27.9649 35.6639 27.6052 37.4726C27.2454 39.2812 26.3574 40.9425 25.0535 42.2464C23.7495 43.5504 22.0882 44.4384 20.2796 44.7982C18.4709 45.1579 16.5963 44.9733 14.8925 44.2676C13.1889 43.5619 11.7327 42.3668 10.7082 40.8336C9.68367 39.3003 9.13683 37.4976 9.13683 35.6536C9.13262 34.428 9.37089 33.2137 9.83794 32.0805C10.305 30.9474 10.9916 29.9179 11.8583 29.0513C12.7249 28.1846 13.7544 27.498 14.8875 27.0309C16.0207 26.5639 17.235 26.3256 18.4606 26.3299Z" fill="#000000" stroke-width="2px" style="animation-duration: 5s;"></path><path class="fillCls1" d="M17.7005 29.8304C16.8762 29.9482 16.159 30.3228 15.7094 30.8902C14.5747 32.2818 15.1099 34.5726 16.3196 35.611C17.1117 36.2853 17.9895 36.2746 18.7602 36.2639C19.5309 36.2532 20.0234 36.2639 20.4623 36.6814C20.9012 37.0989 21.3829 38.4262 20.9012 39.2826C20.4195 40.139 19.0386 40.2889 18.4926 40.2675C16.8655 40.2247 15.8379 38.9401 15.6559 38.6832C15.5706 38.5702 15.4448 38.4949 15.305 38.4729C15.1653 38.4509 15.0224 38.4841 14.9065 38.5654C14.8495 38.6068 14.8012 38.659 14.7644 38.7191C14.7276 38.7792 14.703 38.846 14.692 38.9156C14.6811 38.9852 14.684 39.0563 14.7006 39.1248C14.7172 39.1933 14.7472 39.2579 14.7888 39.3147C15.0992 39.7322 16.1804 41.0168 17.9253 41.2951V42.1408C17.9253 42.2827 17.9817 42.4188 18.082 42.5192C18.1824 42.6196 18.3186 42.676 18.4605 42.676C18.6016 42.6732 18.7362 42.616 18.836 42.5162C18.9357 42.4164 18.993 42.2819 18.9958 42.1408V41.3272C20.3017 41.2523 21.3294 40.7063 21.8324 39.8072C22.5069 38.6082 22.2178 36.8634 21.1902 35.9C20.4087 35.1614 19.5202 35.1828 18.7388 35.1935C17.9574 35.2042 17.5078 35.2149 17.0154 34.7974C16.2125 34.1123 15.8272 32.4424 16.5444 31.5646C16.8441 31.1792 17.3686 30.933 17.9681 30.8795C18.8138 30.7939 19.7129 31.0936 20.4195 31.693C20.5273 31.7853 20.6675 31.831 20.809 31.8199C20.9505 31.8089 21.0819 31.7421 21.1741 31.6342C21.2664 31.5263 21.3121 31.3862 21.301 31.2446C21.29 31.1031 21.2232 30.9718 21.1153 30.8795C20.4501 30.3129 19.6366 29.9489 18.771 29.8304V29.0062C18.771 28.9178 18.7496 28.8307 18.7086 28.7524C18.6676 28.674 18.6082 28.6069 18.5354 28.5566C18.4452 28.5012 18.3415 28.4715 18.2357 28.471C18.1153 28.4699 17.9979 28.5094 17.9028 28.5832C17.8076 28.657 17.7401 28.7608 17.7112 28.8777C17.7023 28.9199 17.6987 28.9631 17.7005 29.0062V29.8304Z" fill="#000000" stroke-width="2px" style="animation-duration: 5s;"></path></g><g class="money4-3" style="animation-duration: 5s;"><path class="fillCls3" d="M50.6803 34.4988C56.2661 34.4988 60.7942 29.9706 60.7942 24.3849C60.7942 18.7991 56.2661 14.271 50.6803 14.271C45.0946 14.271 40.5664 18.7991 40.5664 24.3849C40.5664 29.9706 45.0946 34.4988 50.6803 34.4988Z" fill="#FFEF00" stroke-width="2px" style="animation-duration: 5s;"></path><path class="fillCls1" d="M47.7872 34.0852C49.879 34.6939 52.1094 34.6291 54.1631 33.9001C56.2162 33.171 57.9877 31.8146 59.2275 30.0228C60.4667 28.2311 61.1113 26.0948 61.0698 23.9165C61.0283 21.7381 60.3022 19.6281 58.9949 17.8851C57.6875 16.1421 55.8654 14.8544 53.7857 14.2045C51.7065 13.5545 49.475 13.5751 47.4078 14.2635C45.3407 14.9518 43.5424 16.2729 42.2676 18.0398C40.9928 19.8066 40.3061 21.9298 40.3047 24.1085C40.3067 26.3566 41.0368 28.5436 42.3857 30.3421C43.7345 32.1405 45.6296 33.4538 47.7872 34.0852ZM50.6988 14.7955C53.1682 14.7983 55.5354 15.7804 57.2808 17.5263C59.0268 19.2723 60.0089 21.6394 60.0121 24.1085C60.0142 25.9534 59.4686 27.7576 58.445 29.2925C57.4213 30.8274 55.9655 32.0241 54.261 32.7311C52.5571 33.4382 50.6812 33.6237 48.8719 33.2643C47.0622 32.9049 45.3999 32.0167 44.0953 30.7121C42.7907 29.4075 41.9025 27.7451 41.5431 25.9356C41.1837 24.1259 41.3692 22.2503 42.0762 20.5462C42.7832 18.8421 43.98 17.386 45.5149 16.3623C47.0498 15.3386 48.8538 14.7933 50.6988 14.7955Z" fill="#000000" stroke-width="2px" style="animation-duration: 5s;"></path><path class="fillCls1" d="M49.9378 18.2853C49.1244 18.403 48.3967 18.7884 47.9469 19.345C46.8122 20.7474 47.3474 23.0274 48.5569 24.0658C49.3597 24.7509 50.2268 24.7295 50.9976 24.7188C51.7684 24.7081 52.2608 24.7188 52.6999 25.1363C53.2993 25.7036 53.6203 26.8811 53.1385 27.7375C52.6568 28.5938 51.276 28.7437 50.7298 28.733C49.1031 28.6795 48.0752 27.3949 47.8932 27.138C47.8512 27.0818 47.7983 27.0344 47.7379 26.9986C47.6774 26.9628 47.6104 26.9393 47.5409 26.9293C47.4713 26.9194 47.4004 26.9232 47.3324 26.9406C47.2642 26.9581 47.2002 26.9888 47.144 27.031C47.0873 27.0714 47.0392 27.1226 47.0025 27.1818C46.9659 27.241 46.9413 27.3069 46.9304 27.3756C46.9194 27.4444 46.9223 27.5146 46.9387 27.5822C46.9552 27.6499 46.985 27.7136 47.0263 27.7696C47.3367 28.1977 48.4499 29.5144 50.2374 29.7607C50.1853 29.8439 50.1592 29.9408 50.1629 30.039V30.9274C50.1629 31.0694 50.2193 31.2056 50.3194 31.3059C50.42 31.4063 50.5558 31.4627 50.6979 31.4627C50.84 31.4627 50.9763 31.4063 51.0764 31.3059C51.177 31.2056 51.2334 31.0694 51.2334 30.9274V30.039C51.2286 29.9534 51.2068 29.8697 51.169 29.7928C52.5072 29.7285 53.5559 29.1826 54.0701 28.262C54.7445 27.0738 54.4555 25.3182 53.4276 24.3548C52.6462 23.6269 51.7684 23.6376 50.9763 23.6483C50.1842 23.659 49.7451 23.6697 49.2527 23.2522C48.4499 22.5671 48.0646 20.9079 48.7816 20.0194C49.0818 19.6447 49.6061 19.3878 50.2162 19.3344C51.0514 19.2487 51.9504 19.5484 52.6568 20.1479C52.7106 20.1936 52.7723 20.2283 52.8389 20.25C52.9059 20.2718 52.9762 20.2802 53.0464 20.2747C53.1167 20.2693 53.1849 20.2501 53.2477 20.2182C53.3099 20.1863 53.3658 20.1425 53.4116 20.089C53.4574 20.0356 53.492 19.9737 53.5138 19.9069C53.5356 19.84 53.5442 19.7696 53.5383 19.6995C53.533 19.6294 53.5138 19.5611 53.4819 19.4984C53.4499 19.4358 53.4063 19.38 53.3525 19.3344C52.6877 18.7678 51.8743 18.4037 51.0082 18.2853V17.461C51.0077 17.3743 50.9859 17.2889 50.9449 17.2125C50.9039 17.1361 50.8448 17.0707 50.773 17.0222C50.6857 16.9588 50.5808 16.925 50.4733 16.9258C50.353 16.9247 50.2353 16.9642 50.14 17.0381C50.0453 17.1118 49.9777 17.2156 49.9484 17.3325C49.9484 17.3754 49.9378 17.4182 49.9378 17.461V18.2853Z" fill="#000000" stroke-width="2px" style="animation-duration: 5s;"></path></g><g class="money4-2" style="animation-duration: 5s;"><path class="fillCls5" d="M77.4733 57.2395C83.059 57.2395 87.5872 52.7114 87.5872 47.1256C87.5872 41.5399 83.059 37.0117 77.4733 37.0117C71.8875 37.0117 67.3594 41.5399 67.3594 47.1256C67.3594 52.7114 71.8875 57.2395 77.4733 57.2395Z" fill="#5CE2FF" stroke-width="2px"></path><path class="fillCls1" d="M67.3594 47.0832C67.3573 49.1394 67.9651 51.1501 69.1059 52.8608C70.2472 54.5717 71.8696 55.9056 73.7684 56.694C75.6677 57.4823 77.7581 57.6894 79.775 57.2896C81.7919 56.8899 83.6449 55.9008 85.0997 54.4476C86.5545 52.9944 87.5457 51.1422 87.9476 49.1256C88.3494 47.1091 88.144 45.0186 87.3578 43.1187C86.5715 41.2188 85.2392 39.5948 83.5294 38.4522C81.8201 37.3096 79.8101 36.6997 77.7538 36.6997C75.0007 36.7053 72.3615 37.8008 70.4138 39.7465C68.4661 41.6923 67.3679 44.3301 67.3594 47.0832ZM77.7538 37.7701C79.5951 37.7723 81.3948 38.3203 82.9247 39.3449C84.4551 40.3695 85.6469 41.8247 86.3501 43.5266C87.0533 45.2285 87.2364 47.1008 86.876 48.9066C86.5151 50.7125 85.6272 52.3709 84.3246 53.6721C83.0216 54.9736 81.3623 55.8593 79.5562 56.2181C77.7496 56.5763 75.8779 56.3916 74.1767 55.6863C72.4754 54.981 71.0217 53.7876 69.9986 52.2561C68.976 50.7248 68.4299 48.9247 68.4299 47.0832C68.4272 45.8585 68.6667 44.6453 69.1341 43.5134C69.602 42.3815 70.2887 41.3533 71.1553 40.4878C72.0219 39.6223 73.0508 38.9366 74.1831 38.4702C75.3158 38.0038 76.529 37.7659 77.7538 37.7701Z" fill="#000000" stroke-width="2px" style="animation-duration: 5s;"></path><path class="fillCls1" d="M76.9933 41.26C76.222 41.3571 75.5135 41.7342 75.0025 42.3198C73.8676 43.7221 74.4031 46.0129 75.6125 47.0405C76.4152 47.7256 77.2823 47.7042 78.0531 47.6935C78.8239 47.6828 79.3163 47.6935 79.7549 48.111C80.1941 48.5285 80.6758 49.8558 80.1941 50.7122C79.7123 51.5685 78.3315 51.7184 77.7854 51.7077C76.1693 51.6542 75.1414 50.3696 74.9487 50.1127C74.8635 49.9992 74.7368 49.9241 74.5963 49.904C74.4558 49.8839 74.3131 49.9205 74.1992 50.0057C74.0864 50.091 74.0113 50.2167 73.9889 50.3565C73.9671 50.4963 74.0006 50.6392 74.0816 50.755C74.3919 51.1725 75.4736 52.457 77.2179 52.7247V53.5705C77.2179 53.7121 77.2744 53.8484 77.375 53.949C77.475 54.0491 77.6113 54.1055 77.7534 54.1055C77.8956 54.1055 78.0313 54.0491 78.1319 53.949C78.232 53.8484 78.2884 53.7121 78.2884 53.5705V52.7675C79.6053 52.6818 80.6221 52.1359 81.1363 51.2367C81.7995 50.0485 81.5105 48.2929 80.4938 47.3295C79.7123 46.6016 78.8239 46.6123 78.0425 46.623C77.2611 46.6337 76.8006 46.6444 76.3082 46.227C75.5055 45.5418 75.1201 43.8826 75.8371 42.9941C76.1475 42.6195 76.6617 42.3626 77.2717 42.3091C78.1175 42.2234 79.006 42.5231 79.7123 43.1226C79.7656 43.1683 79.8279 43.203 79.8944 43.2248C79.9615 43.2466 80.0317 43.2549 80.102 43.2494C80.1717 43.244 80.2404 43.2248 80.3027 43.1929C80.3655 43.161 80.4214 43.1172 80.4672 43.0637C80.5129 43.0103 80.5475 42.9484 80.5694 42.8816C80.5912 42.8148 80.5992 42.7443 80.5939 42.6742C80.5885 42.6041 80.5694 42.5358 80.5374 42.4732C80.5055 42.4105 80.4613 42.3547 80.4081 42.3091C79.7432 41.7425 78.9293 41.3784 78.0638 41.26V40.4357C78.0648 40.3486 78.0441 40.2626 78.0026 40.1858C77.9616 40.1091 77.9014 40.044 77.8285 39.9969C77.7423 39.9321 77.6363 39.8981 77.5288 39.9005C77.4096 39.8999 77.2935 39.9398 77.2004 40.0138C77.1067 40.0877 77.0417 40.1912 77.0146 40.3073C77.0023 40.3491 76.9954 40.3922 76.9933 40.4357V41.26Z" fill="#000000" stroke-width="2px" style="animation-duration: 5s;"></path></g><g class="money4-1" style="animation-duration: 5s;"><path class="fillCls3" d="M82.1823 90.9822C87.768 90.9822 92.2962 86.454 92.2962 80.8683C92.2962 75.2825 87.768 70.7544 82.1823 70.7544C76.5965 70.7544 72.0684 75.2825 72.0684 80.8683C72.0684 86.454 76.5965 90.9822 82.1823 90.9822Z" fill="#FFEF00" stroke-width="2px" style="animation-duration: 5s;"></path><path class="fillCls1" d="M92.5758 80.5988C92.5785 78.6676 92.043 76.7736 91.0294 75.1293C90.0159 73.485 88.5643 72.1558 86.838 71.2908C85.1112 70.4253 83.1773 70.0585 81.2536 70.231C79.3298 70.4035 77.4923 71.1082 75.947 72.2665C74.4017 73.4249 73.2093 74.9909 72.5045 76.7891C71.7992 78.5872 71.6092 80.5461 71.9557 82.4465C72.3017 84.3468 73.1704 86.1125 74.4639 87.5465C75.758 88.9806 77.4257 90.0255 79.2803 90.5647C80.2251 90.8453 81.2062 90.9863 82.192 90.9821C84.9451 90.9794 87.5843 89.8844 89.531 87.9378C91.4776 85.9911 92.5726 83.3519 92.5758 80.5988ZM77.3858 88.5739C75.4572 87.4108 74.0157 85.5882 73.3275 83.444C72.6397 81.2999 72.752 78.979 73.6436 76.911C74.5353 74.8435 76.146 73.1688 78.1773 72.1968C80.2092 71.2253 82.5236 71.0231 84.6928 71.6267C86.8625 72.2309 88.7394 73.6005 89.9771 75.4822C91.2142 77.3634 91.7278 79.6295 91.4223 81.8609C91.1173 84.0918 90.0138 86.137 88.3168 87.6173C86.6198 89.0971 84.4442 89.9126 82.192 89.9116C80.4982 89.9116 78.8363 89.449 77.3858 88.5739Z" fill="#000000" stroke-width="2px" style="animation-duration: 5s;"></path><path class="fillCls1" d="M81.4543 73.8121C81.4415 73.8541 81.4346 73.8972 81.4325 73.9409V74.7649C80.6617 74.8618 79.9527 75.2392 79.4416 75.8247C78.3068 77.2268 78.8423 79.5179 80.0517 80.5453C80.8544 81.2303 81.7215 81.2197 82.4923 81.1984C83.2631 81.1771 83.7555 81.1984 84.1946 81.6157C84.794 82.1832 85.115 83.3606 84.6333 84.2171C84.1515 85.0736 82.7707 85.2232 82.2246 85.2125C80.6085 85.17 79.5806 83.8743 79.3879 83.6177C79.3458 83.5613 79.2931 83.5139 79.2324 83.4783C79.1723 83.4426 79.1052 83.4187 79.0355 83.4091C78.9658 83.399 78.895 83.4027 78.8268 83.4203C78.7592 83.4378 78.6948 83.4682 78.6389 83.5108C78.5261 83.5959 78.4505 83.7215 78.4287 83.8615C78.4063 84.001 78.4398 84.1442 78.5207 84.2597C78.8316 84.6776 79.9127 85.962 81.6576 86.2298V87.0751C81.6576 87.2172 81.7141 87.3535 81.8141 87.4536C81.9148 87.5542 82.0505 87.6106 82.1926 87.6106C82.3347 87.6106 82.471 87.5542 82.5711 87.4536C82.6717 87.3535 82.7281 87.2172 82.7281 87.0751V86.2724C84.0445 86.1867 85.0618 85.6517 85.5648 84.7415C86.2392 83.5533 85.9502 81.7978 84.933 80.8343C84.1515 80.1066 83.2631 80.1173 82.4817 80.1279C81.7002 80.1386 81.2398 80.1492 80.7474 79.7319C79.9447 79.0468 79.5593 77.3876 80.2763 76.4992C80.5872 76.1244 81.1008 75.8673 81.7109 75.8141C82.1522 75.7816 82.5956 75.838 83.0145 75.9796C83.4334 76.1212 83.8204 76.3453 84.1515 76.6381C84.2628 76.7265 84.4033 76.7685 84.5444 76.7568C84.6854 76.7446 84.8169 76.6796 84.9117 76.5742C85.0022 76.464 85.0463 76.323 85.0341 76.1808C85.0224 76.0387 84.9553 75.9072 84.8473 75.8141C84.1824 75.2472 83.3685 74.8836 82.503 74.7649V73.9409C82.5024 73.8541 82.4806 73.7684 82.4396 73.6923C82.3986 73.6156 82.3395 73.5502 82.2677 73.5017C82.1814 73.4368 82.0755 73.4032 81.968 73.4054C81.8487 73.4048 81.7332 73.4448 81.6395 73.5188C81.5464 73.5927 81.4809 73.696 81.4543 73.8121Z" fill="#000000" stroke-width="2px" style="animation-duration: 5s;"></path></g></svg>